<svg xmlns="http://www.w3.org/2000/svg" width="100%" viewBox="0 0 512 512" height="150" xmlns:v="https://vecta.io/nano">
    <path d="M157 1h355.962v511.908H1.146V1l145.722.297c.259.926-.715 1.538-.742 2.189-.127 3.05-.9 6.534.278 9.061 1.445 3.098 7.268 3.488 10.068 1.267 2.909-2.308 3.117-5.511 2.001-8.859C158.028 3.62 157.494 2.317 157 1M92.012 276.5l.006 215.928c.001 7.864 2.663 10.567 10.43 10.568l308.898.002c8.054-.001 10.642-2.648 10.642-10.868l.004-384.373v-4.742H92.012V276.5M225.5 92.838h196.506l-.001-19.117c-.007-7.694-1.01-8.732-8.509-8.732l-273.34-.002h-5.328v27.851H225.5M103.595 64.988c-2.164.006-4.574-.584-6.425.18-1.978.817-4.767 2.819-4.88 4.463-.52 7.563-.229 15.182-.229 22.825h32.219V64.988h-20.685m-73.673-7.98c-4.058.626-6.206 2.999-5.874 7.092.562 6.937 6.311 5.724 10.696 6.177.606 8.567 1.777 10.61 6.252 10.674 1.746.025 4.462.114 5.069-.863 1.801-2.897 2.772-6.31 4.194-9.832 7.613-.732 9.804-2.056 9.704-6.639-.159-7.29-6.046-6.39-10.649-6.899-.776-8.97-2.034-10.749-7.379-10.716-5.186.032-6.313 1.648-7.373 10.999l-4.641.007m445.12 268.698c3.189-7.57 9.291-11.574 17.276-13.831-9.731-3.234-16.756-8.845-19.464-19.276-2.862 10.229-9.555 16.172-19.245 19.506 10.529 2.099 15.328 9.741 19.34 18.803.956-2.133 1.472-3.282 2.093-5.201M47.243 409.041l6.701 8.38 12.885-12.51c-6.165-.824-9.636-6.295-11.926-11.153l-13.219 12.793c1.178.584 2.992 1.482 5.558 2.489m410.429-24.16c-.586.585-1.667 1.162-1.676 1.755-.043 3.06-.71 6.58.555 9.069 1.545 3.042 7.566 3.264 10.127.936 2.685-2.441 2.941-5.514 1.621-8.935-2.039-5.285-6.271-3.555-10.627-2.824z"/>
    <path fill="#70d7f9" d="M156.546 1c.948 1.317 1.482 2.62 1.927 3.954 1.116 3.348.908 6.55-2.001 8.859-2.8 2.222-8.623 1.832-10.068-1.267-1.178-2.527-.405-6.01-.278-9.061.027-.651 1.002-1.262 1.207-2.189C150.031 1 153.061 1 156.546 1z"/>
    <path fill="#f4c74c" d="M92.012 276V103.014h329.98v4.742l-.004 384.373c0 8.22-2.588 10.867-10.642 10.868-102.966.008-205.932.008-308.898-.002-7.767-.001-10.429-2.703-10.43-10.568L92.012 276m192.92-22.377c.538-5.574-.784-7.187-6.527-7.199l-79.397-.025c-3.544.001-7.051.442-7.104 5.014-.053 4.595 3.372 5.071 6.977 5.069l79.396-.102c2.096-.012 4.185-1.387 6.655-2.757M250.5 318.635c-17.164 0-34.329.007-51.493-.005-3.553-.002-7.082.315-7.097 4.949-.015 4.539 3.375 5.123 6.998 5.121l79.489.001c3.674.002 6.959-.743 6.855-5.262-.098-4.245-3.307-4.822-6.756-4.811l-27.996.007m10 72.23c-20.827.001-41.653.021-62.48-.017-3.44-.006-6.081.969-6.112 4.871-.031 3.846 2.614 5.142 5.992 5.146l81.474-.004c3.434-.004 5.994-1.463 5.873-5.263-.123-3.866-2.828-4.807-6.253-4.756l-18.494.023m-102.503 85.791c7.272-2.74 11.455-8.03 11.742-15.734.202-5.42 1.622-8.763 7.652-9.554 1.711-.224 4.259-3.238 4.237-4.945-.022-1.746-2.589-4.772-4.282-4.951-6.211-.654-7.38-4.215-7.59-9.543-.336-8.545-6.261-14.918-14.244-16.177-3.406-.537-6.629-.374-7.463 3.689s1.82 5.605 5.403 6.148c4.327.656 5.829 3.522 6.482 7.606.736 4.602 2.198 9.089 3.404 13.86-.977 2.831-3.017 6.323-3.238 9.927-.36 5.866-1.713 9.858-8.34 10.927-1.522.245-3.537 3.5-3.505 5.338.024 1.396 2.766 3.098 4.623 3.98 1.151.547 2.909-.184 5.119-.571m11.052-353.368c-5.741 3.331-9.128 8.143-9.173 14.935-.033 5.111-1.565 8.509-7.459 9.208-1.713.203-4.254 3.121-4.311 4.864-.057 1.726 2.384 4.889 4.003 5.077 6.391.744 7.682 4.514 7.84 9.989.238 8.27 6.571 14.891 14.501 15.858 3.535.431 6.638-.153 7.21-4.152.53-3.704-2.061-5.277-5.42-5.757-4.329-.619-5.894-3.267-6.488-7.483-.65-4.613-2.283-9.087-3.583-13.98.999-2.804 3.274-6.463 3.412-10.2.226-6.128 2.054-9.681 8.506-10.719 1.458-.235 3.573-3.432 3.37-5.006-.211-1.635-2.692-3.837-4.494-4.19-2.236-.437-4.793.77-7.914 1.556M340.5 256.479l22.46.007c3.583.015 7.054-.405 7.085-4.973.031-4.546-3.433-5.113-7.009-5.114-18.468-.006-36.935.014-55.403-.014-3.649-.005-7.093.685-7.126 5.052-.034 4.39 3.362 5.087 7.048 5.065l32.944-.022m8.997 62.155l-42.925.002c-3.476-.005-6.061 1.307-6.079 5.028-.017 3.41 2.372 5 5.632 5.006l58.398-.017c3.197-.01 5.557-1.502 5.548-5.052-.009-3.575-2.36-4.897-5.601-4.934l-14.973-.034m-64.99-24.239c-4.653.019-9.313-.11-13.956.11-3.05.145-5.431 2.066-4.652 5.12.476 1.867 2.845 3.458 4.689 4.682.933.619 2.589.168 3.918.168l42.378-.002c3.488-.003 7.108.473 10.414-.322 1.843-.443 4.387-3.059 4.38-4.685-.008-1.66-2.573-3.555-4.375-4.856-.89-.643-2.58-.21-3.908-.211l-38.889-.005m-10.574 72.241c-1.328.038-3.009-.42-3.909.22-1.686 1.198-4.005 3.009-4.039 4.609-.035 1.639 2.109 3.657 3.766 4.877 1.003.739 2.89.344 4.38.345l49.386.005c1.328-.001 3.04.42 3.903-.237 1.772-1.35 4.268-3.306 4.254-4.995-.013-1.599-2.687-3.425-4.523-4.656-.927-.622-2.589-.166-3.919-.166l-49.299-.002m-63.326-63.248c.451-2.089 1.872-4.716 1.093-6.124-.854-1.542-3.727-2.714-5.741-2.746l-42.493-.119c-3.665.003-7.452-.476-10.945.314-1.815.411-4.306 3.112-4.304 4.775.002 1.632 2.574 3.574 4.415 4.77 1.069.695 2.919.217 4.418.218l44.995-.024c2.641-.01 5.281-.398 8.563-1.063m-20.108 73.311l15.473.001c3.576.012 6.579-1.158 6.539-5.157-.041-4.044-3.096-4.954-6.672-4.932l-33.942.026c-6.322.003-12.673-.3-18.949.244-1.791.155-4.865 2.988-4.699 4.244.261 1.98 2.575 3.9 4.403 5.367.825.662 2.574.202 3.903.203l33.943.005M326.5 400.886l36.93-.002c3.491 0 6.528-.898 6.597-5.044.071-4.229-2.897-5.006-6.464-4.997-18.798.048-37.596.062-56.393-.014-3.605-.015-6.599.844-6.641 4.899-.042 4.003 2.918 5.178 6.505 5.163l19.465-.005m-109.785-48.52l32.389-.001 14.948-.032c3.099-.035 5.654-1.667 5.046-4.708-.397-1.984-2.879-3.753-4.774-5.146-.874-.642-2.579-.174-3.907-.174-14.616-.005-29.233-.009-43.849.004-1.99.002-4.312-.526-5.884.311-1.887 1.005-4.323 3.214-4.318 4.895.005 1.603 2.624 3.577 4.512 4.662 1.256.722 3.244.171 5.838.189M325.93 222.233l-53.885-.003c-3.594 0-6.431 1.187-6.294 5.312.129 3.869 2.942 4.744 6.3 4.739l53.386.003c3.071.005 5.883-.564 6.446-4.062.592-3.681-1.582-5.511-5.952-5.989m-147.43-.005c-7.82 0-15.64.021-23.46-.008-3.604-.013-7.008.519-7.074 5.031-.068 4.614 3.386 5.034 6.976 5.03l50.414.014c3.662.012 7.102-.566 7.131-4.962.029-4.345-3.331-5.15-7.03-5.124l-26.956.019m50.001 47.936c-5.664.008-11.33-.089-16.99.064-3.235.088-5.867 1.905-5.248 5.207.338 1.804 3.009 4.492 4.67 4.522 17.818.328 35.647.328 53.465.005 1.666-.03 4.529-2.835 4.581-4.427.057-1.703-2.358-3.742-4.091-5.141-.826-.666-2.573-.224-3.904-.226l-32.484-.006m40.082-64.301c1.3-5.719-.18-7.751-5.983-7.771-16.613-.056-33.226.003-49.839-.039-3.57-.009-6.558.986-6.618 5.004-.06 4.062 2.887 5.061 6.492 5.05l50.336-.093c1.686-.011 3.366-.974 5.61-2.151m-100.081 136.44c-4.649.001-9.299-.025-13.948.012-3.429.027-6.546.818-6.607 5.016-.062 4.222 2.908 5.055 6.449 5.043l32.378.015c3.561.024 6.603-.838 6.659-4.907.056-4.032-2.953-5.171-6.498-5.174l-18.433-.006m21.192-134.345c2.933-1.053 4.808-3.385 3.342-6.062-1.003-1.831-3.929-3.585-6.054-3.659-10.63-.367-21.279-.141-31.921-.183-3.613-.014-7.003.483-7.08 4.991-.078 4.573 3.284 5.081 6.93 5.06l34.783-.147m-5.368 72.239c.498 0 .998-.018 1.495.003 3.712.159 7.547-.086 7.558-4.919.011-4.731-3.734-5.147-7.49-5.131l-31.396.018c-3.496.002-6.502.935-6.534 5.085-.033 4.235 2.97 4.98 6.502 4.96l29.865-.016M148.8 326.523c1.602.721 3.179 1.992 4.809 2.064 5.807.255 11.632.146 17.45.086 3.429-.035 5.972-1.492 5.87-5.256-.095-3.507-2.577-4.755-5.8-4.762-5.818-.012-11.64-.131-17.453.037-4.867.141-5.99 1.816-4.876 7.831m22.91-80.077l-17.938-.005c-3.368.045-5.964 1.366-5.843 5.241.112 3.578 2.567 4.756 5.762 4.772 5.814.03 11.664.377 17.422-.187 2.063-.202 3.906-2.653 5.849-4.078-1.471-1.874-2.941-3.748-5.252-5.743m-23.435 151.462c1.631.985 3.219 2.726 4.9 2.82 6.13.342 12.294.25 18.439.086 3.225-.086 5.496-1.865 5.313-5.305-.184-3.449-2.558-4.7-5.853-4.664l-17.451.018c-4.215-.006-6.121 2.035-5.347 7.044m207.444-93.431c2.992-.011 5.988.064 8.976-.056 3.245-.13 5.979-1.75 5.173-5.112-.461-1.923-3.116-4.329-5.099-4.668-4.2-.719-8.608-.273-12.93-.215-3.158.042-5.689 1.208-5.827 4.766-.149 3.847 2.385 5.154 5.811 5.262.997.031 1.995.017 3.896.023m-9.766 67.046c1.525 1.684 2.885 4.587 4.606 4.82 4.903.664 9.982.569 14.938.145 4.386-.375 6.14-5.004 3.45-8.106-2.91-3.355-20.141-2.307-22.682 1.395-.176.256-.176.634-.312 1.746m-108.288 5.172c2.974-.039 6.135.523 8.856-.327 1.854-.579 4.249-3.115 4.272-4.804.022-1.6-2.565-4.383-4.299-4.637-4.531-.664-9.284-.661-13.819-.015-1.769.252-4.412 2.915-4.439 4.517-.028 1.686 2.371 3.728 4.147 5.007 1 .72 2.883.213 5.282.259m.027-72.221c2.81-.024 5.627.062 8.429-.1 3.048-.176 5.011-1.75 4.977-4.991-.034-3.257-2.111-4.762-5.103-4.903-3.63-.171-7.273-.059-10.91-.08-3.532-.021-6.997.394-7.116 4.912-.119 4.537 3.242 5.172 6.84 5.16l2.884.002m115.109-72.201l11.97-.044c3.078-.043 5.186-1.456 5.296-4.701.119-3.512-2.1-5.13-5.336-5.249-4.151-.153-8.312-.048-12.468-.046-3.353.002-6.094 1.069-6.238 4.882-.145 3.834 2.406 5.136 6.776 5.157m-106.94-10.029c-4.303.005-8.699-.502-12.869.244-1.922.344-4.389 2.907-4.859 4.881-.721 3.023 1.759 4.754 4.847 4.838 3.97.108 8.01.483 11.891-.107 2.185-.332 5.124-1.928 5.924-3.746 1.333-3.031-.858-5.242-4.933-6.11z"/>
    <path fill="#508cd5" d="M225 92.838h-90.172V64.987h5.328l273.34.002c7.498 0 8.502 1.038 8.509 8.732l.001 19.117c-65.719 0-131.112 0-197.006 0m-49.5-9.659l178.847.006c3.597.001 7.629.237 7.669-4.775.042-5.202-4.075-5.249-7.891-5.233h-1.499c-65.444 0-130.888 0-196.332.001-1.166 0-2.334-.043-3.496.027-3.418.204-5.944 1.635-5.73 5.427.2 3.54 2.718 4.579 5.951 4.557l22.481-.01m219.9-10.006c-5.305.017-10.668-.409-15.882.287-1.88.251-4.466 2.995-4.835 4.958-.541 2.879 1.857 4.735 5.039 4.741 7.626.013 15.272.31 22.862-.215 1.868-.129 3.548-2.968 5.315-4.561-1.691-1.717-3.112-3.998-5.156-4.981-1.757-.845-4.227-.209-7.343-.228z"/>
    <path fill="#f6627b" d="M104.082 64.988h20.198v27.468H92.061c0-7.643-.291-15.262.229-22.825.113-1.644 2.902-3.647 4.88-4.463 1.851-.764 4.261-.174 6.912-.18z"/>
    <path fill="#87d147" d="M30.354 57.005l4.208-.003c1.06-9.352 2.187-10.967 7.373-10.999 5.345-.033 6.603 1.745 7.379 10.716 4.603.509 10.49-.391 10.649 6.899.1 4.583-2.091 5.908-9.704 6.639-1.421 3.522-2.393 6.935-4.194 9.832-.607.977-3.323.888-5.069.863-4.475-.064-5.646-2.107-6.252-10.674-4.385-.453-10.134.76-10.696-6.177-.331-4.093 1.816-6.466 6.307-7.095z"/>
    <path fill="#70d7f9" d="M474.989 326.091l-2.04 4.816c-4.012-9.061-8.811-16.704-19.34-18.803 9.69-3.334 16.383-9.277 19.245-19.506 2.707 10.431 9.733 16.042 19.464 19.276-7.985 2.257-14.088 6.261-17.329 14.216z"/>
    <path fill="#f6c84c" d="M46.867 408.987l-5.182-2.435 13.219-12.793c2.289 4.857 5.761 10.329 11.926 11.153l-12.885 12.51c-1.667-2.085-4.184-5.233-7.077-8.434z"/>
    <path fill="#fc657e" d="M457.964 384.575c4.064-.425 8.297-2.155 10.335 3.13 1.32 3.421 1.064 6.494-1.621 8.935-2.561 2.328-8.582 2.106-10.127-.936-1.264-2.489-.598-6.009-.555-9.069.008-.593 1.09-1.171 1.967-2.061z"/>
    <path fill="#0b0903" d="M284.744 253.937c-2.281 1.056-4.37 2.432-6.466 2.443l-79.396.102c-3.605.002-7.031-.474-6.977-5.069.053-4.572 3.559-5.014 7.104-5.014l79.397.025c5.743.013 7.065 1.625 6.339 7.513z"/>
    <path fill="#090803" d="M251 318.635l27.496-.007c3.449-.011 6.657.566 6.756 4.811.105 4.519-3.181 5.264-6.855 5.262l-79.489-.001c-3.623.002-7.013-.582-6.998-5.121.015-4.634 3.544-4.952 7.097-4.949l51.993.005z"/>
    <path fill="#050402" d="M261 390.865l17.994-.023c3.424-.051 6.129.89 6.253 4.756.121 3.799-2.439 5.259-5.873 5.263l-81.474.004c-3.379-.004-6.024-1.299-5.992-5.146.032-3.901 2.672-4.877 6.112-4.871l62.98.017z"/>
    <path d="M157.635 476.77c-1.848.272-3.606 1.003-4.757.456-1.857-.882-4.599-2.584-4.623-3.98-.032-1.838 1.983-5.093 3.505-5.338 6.627-1.069 7.98-5.061 8.34-10.927.221-3.604 2.261-7.096 3.238-9.927-1.206-4.772-2.668-9.258-3.404-13.86-.653-4.084-2.155-6.951-6.482-7.606-3.583-.543-6.236-2.09-5.403-6.148s4.057-4.226 7.463-3.689c7.983 1.259 13.908 7.632 14.244 16.177.21 5.328 1.379 8.889 7.59 9.543 1.694.178 4.26 3.204 4.282 4.951.022 1.707-2.527 4.721-4.237 4.945-6.03.79-7.449 4.134-7.652 9.554-.288 7.704-4.47 12.994-12.105 15.849zm11.766-353.628c2.77-.642 5.327-1.849 7.563-1.412 1.802.353 4.283 2.555 4.494 4.19.203 1.574-1.912 4.772-3.37 5.006-6.452 1.038-8.28 4.591-8.506 10.719-.138 3.737-2.413 7.395-3.412 10.2 1.3 4.893 2.934 9.367 3.583 13.98.594 4.217 2.159 6.864 6.488 7.483 3.359.48 5.95 2.053 5.42 5.757-.572 3.999-3.675 4.583-7.21 4.152-7.929-.966-14.262-7.588-14.501-15.858-.158-5.475-1.449-9.245-7.84-9.989-1.619-.189-4.06-3.351-4.003-5.077.057-1.743 2.598-4.661 4.311-4.864 5.894-.699 7.425-4.097 7.459-9.208.044-6.792 3.432-11.604 9.524-15.079z" fill="#060502"/>
    <path fill="#0b0903" d="M340 256.479c-11.148 0-21.796-.042-32.444.022-3.687.022-7.082-.675-7.048-5.065.033-4.366 3.477-5.057 7.126-5.052l55.403.014c3.576.001 7.04.568 7.009 5.114-.031 4.568-3.502 4.988-7.085 4.973l-22.96-.007z"/>
    <path fill="#0a0803" d="M349.995 318.633l14.474.034c3.241.037 5.592 1.359 5.601 4.934.009 3.549-2.351 5.041-5.548 5.052l-58.398.017c-3.26-.006-5.649-1.596-5.632-5.006.018-3.721 2.603-5.033 6.079-5.028l43.424-.002z"/>
    <path fill="#0b0903" d="M285.005 294.394l38.39.005c1.328.001 3.017-.432 3.908.211 1.801 1.3 4.367 3.195 4.375 4.856.008 1.626-2.537 4.242-4.38 4.685-3.306.796-6.925.319-10.414.322l-42.378.002c-1.329 0-2.985.451-3.918-.168-1.844-1.224-4.213-2.815-4.689-4.682-.779-3.055 1.601-4.975 4.652-5.12 4.643-.221 9.303-.091 14.455-.11z"/>
    <path fill="#0a0803" d="M274.388 366.635l48.843.002c1.33 0 2.992-.455 3.919.166 1.836 1.231 4.51 3.057 4.523 4.656.014 1.689-2.482 3.645-4.254 4.995-.863.657-2.575.236-3.903.237-16.462.009-32.924.012-49.386-.005-1.49-.001-3.377.394-4.38-.345-1.656-1.22-3.801-3.238-3.766-4.877.034-1.6 2.354-3.411 4.039-4.609.9-.64 2.581-.182 4.364-.22z"/>
    <path fill="#0b0903" d="M210.286 303.612l-8.242.838-44.995.024c-1.499-.001-3.348.477-4.418-.218-1.841-1.196-4.413-3.138-4.415-4.77-.002-1.663 2.489-4.364 4.304-4.775 3.493-.791 7.28-.312 10.945-.314l42.493.119c2.014.033 4.888 1.204 5.741 2.746.779 1.408-.642 4.035-1.414 6.35z"/>
    <path fill="#0a0803" d="M189.999 376.698c-11.481 0-22.462.003-33.443-.005-1.33-.001-3.078.459-3.903-.203-1.828-1.467-4.143-3.387-4.403-5.367-.165-1.256 2.908-4.088 4.699-4.244 6.276-.544 12.627-.241 18.949-.244l33.942-.026c3.576-.021 6.631.888 6.672 4.932.041 3.999-2.963 5.169-6.539 5.157l-15.973-.001z"/>
    <path fill="#060502" d="M326 400.886c-6.655-.001-12.81-.021-18.965.005-3.587.015-6.547-1.159-6.505-5.163.042-4.056 3.036-4.914 6.641-4.899l56.393.014c3.567-.009 6.534.768 6.464 4.997-.069 4.146-3.106 5.044-6.597 5.044l-37.43.002z"/>
    <path fill="#0a0803" d="M216.249 352.367c-2.127-.019-4.115.533-5.371-.189-1.887-1.085-4.507-3.059-4.512-4.662-.005-1.681 2.431-3.889 4.318-4.895 1.572-.837 3.894-.31 5.884-.311l43.849-.004c1.328 0 3.033-.468 3.907.174 1.895 1.393 4.378 3.162 4.774 5.146.608 3.042-1.947 4.673-5.046 4.708l-14.948.032-32.855.001z"/>
    <path d="M326.367 222.241c3.934.47 6.108 2.301 5.515 5.982-.563 3.499-3.375 4.068-6.446 4.062l-53.386-.003c-3.358.005-6.171-.87-6.3-4.739-.137-4.124 2.7-5.311 6.294-5.312l54.322.01zM179 222.228l26.456-.019c3.699-.026 7.059.779 7.03 5.124-.029 4.396-3.468 4.975-7.131 4.962l-50.414-.014c-3.59.005-7.044-.415-6.976-5.03.067-4.512 3.47-5.044 7.074-5.031l23.96.008z" fill="#090703"/>
    <path fill="#070602" d="M229.001 270.164l31.984.006c1.33.001 3.078-.441 3.904.226 1.734 1.399 4.148 3.438 4.091 5.141-.053 1.592-2.915 4.397-4.581 4.427-17.818.323-35.647.323-53.465-.005-1.661-.031-4.332-2.719-4.67-4.522-.619-3.302 2.013-5.12 5.248-5.207 5.66-.153 11.326-.056 17.49-.064z"/>
    <path fill="#040301" d="M268.303 206.191c-1.964.849-3.643 1.812-5.33 1.823l-50.336.093c-3.605.011-6.552-.987-6.492-5.05.06-4.018 3.047-5.013 6.618-5.004l49.839.039c5.802.02 7.283 2.052 5.702 8.098z"/>
    <path fill="#0a0803" d="M169.002 342.303l17.934.006c3.545.003 6.554 1.142 6.498 5.174-.056 4.069-3.098 4.93-6.659 4.907l-32.378-.015c-3.541.012-6.51-.821-6.449-5.043.061-4.198 3.178-4.989 6.607-5.016l14.447-.012z"/>
    <path fill="#050402" d="M189.263 208.003l-34.352.102c-3.646.021-7.008-.487-6.93-5.06.077-4.508 3.468-5.005 7.08-4.991 10.642.042 21.291-.184 31.921.183 2.125.073 5.051 1.828 6.054 3.659 1.466 2.676-.409 5.009-3.773 6.107z"/>
    <path fill="#070602" d="M183.846 280.197c-10.115-.001-19.75-.038-29.385.016-3.533.02-6.535-.726-6.502-4.96.032-4.15 3.038-5.083 6.534-5.085l31.396-.018c3.756-.016 7.501.401 7.49 5.131-.011 4.833-3.846 5.077-7.558 4.919-.497-.021-.997-.003-1.975-.003z"/>
    <path fill="#0a0803" d="M148.562 326.198c-.876-5.691.247-7.365 5.114-7.506 5.813-.168 11.635-.049 17.453-.037 3.223.007 5.705 1.255 5.8 4.762.102 3.763-2.442 5.22-5.87 5.256-5.817.06-11.643.169-17.45-.086-1.63-.072-3.207-1.343-5.047-2.389z"/>
    <path fill="#0b0903" d="M172.13 246.506c1.891 1.934 3.362 3.809 4.832 5.683-1.943 1.425-3.786 3.876-5.849 4.078-5.759.564-11.608.216-17.422.187-3.195-.016-5.649-1.194-5.762-4.772-.122-3.875 2.475-5.195 5.843-5.241 5.978-.081 11.959-.005 18.358.065z"/>
    <path fill="#070602" d="M148.148 397.515c-.648-4.616 1.259-6.657 5.474-6.651l17.451-.018c3.295-.037 5.669 1.215 5.853 4.664.183 3.44-2.088 5.219-5.313 5.305-6.145.164-12.309.256-18.439-.086-1.68-.094-3.269-1.835-5.026-3.213z"/>
    <path fill="#0b0903" d="M355.266 304.476c-1.449-.006-2.447.008-3.444-.023-3.426-.108-5.961-1.415-5.811-5.262.138-3.559 2.67-4.724 5.827-4.766 4.322-.057 8.73-.504 12.93.215 1.984.34 4.638 2.746 5.099 4.668.806 3.362-1.928 4.982-5.173 5.112-2.988.12-5.984.045-9.428.056z"/>
    <path fill="#090803" d="M345.979 371.126c.109-.717.109-1.094.285-1.35 2.541-3.701 19.772-4.75 22.682-1.395 2.69 3.102.936 7.731-3.45 8.106-4.956.424-10.035.518-14.938-.145-1.721-.233-3.081-3.136-4.579-5.215z"/>
    <path fill="#090703" d="M237.208 376.694c-1.942-.046-3.825.461-4.825-.259-1.776-1.279-4.176-3.321-4.147-5.007.027-1.602 2.669-4.265 4.439-4.517 4.535-.646 9.288-.649 13.819.015 1.734.254 4.321 3.037 4.299 4.637-.023 1.69-2.418 4.226-4.272 4.804-2.721.849-5.882.287-9.313.327z"/>
    <path fill="#0a0803" d="M237.242 304.473l-2.434-.002c-3.598.012-6.959-.624-6.84-5.16.119-4.518 3.584-4.933 7.116-4.912 3.637.022 7.28-.091 10.91.08 2.992.141 5.069 1.647 5.103 4.903.034 3.241-1.929 4.815-4.977 4.991-2.802.162-5.619.077-8.878.1z"/>
    <path d="M352.344 232.27c-3.913-.019-6.463-1.32-6.319-5.154.144-3.813 2.884-4.88 6.238-4.882 4.156-.002 8.317-.107 12.468.046 3.236.119 5.455 1.737 5.336 5.249-.11 3.245-2.218 4.658-5.296 4.701l-12.427.04zm-106.053-9.993c3.645.834 5.837 3.045 4.503 6.076-.8 1.818-3.739 3.414-5.924 3.746-3.881.59-7.921.215-11.891.107-3.088-.084-5.568-1.815-4.847-4.838.47-1.974 2.937-4.537 4.859-4.881 4.171-.747 8.566-.239 13.3-.211z" fill="#090703"/>
    <path fill="#020406" d="M175 83.179c-7.661-.002-14.821-.038-21.981.01-3.233.022-5.751-1.017-5.951-4.557-.214-3.792 2.312-5.223 5.73-5.427 1.162-.069 2.331-.026 3.496-.027h196.332 1.499c3.816-.016 7.933.031 7.891 5.233-.04 5.011-4.073 4.775-7.669 4.775L175 83.179z"/>
    <path fill="#030507" d="M395.881 73.173c2.635.019 5.105-.617 6.862.228 2.044.983 3.465 3.264 5.156 4.981-1.767 1.593-3.447 4.432-5.315 4.561-7.589.525-15.236.228-22.862.215-3.183-.005-5.58-1.861-5.039-4.741.369-1.962 2.954-4.707 4.835-4.958 5.214-.696 10.578-.27 16.363-.287z"/>
</svg>