<svg xmlns="http://www.w3.org/2000/svg" width="100%" viewBox="0 0 512 512" height="150" xmlns:v="https://vecta.io/nano">
    <!-- black background path - remove from html -->
    <path d="M513 188v324.96H1.102V1.165H513V188M106.212 79.977c-6.817 6.645-13.633 13.291-21.056 19.582-2.002-.85-3.934-2.108-6.021-2.47-5.548-.962-8.183 3.808-10.588 7.06-10.977 14.841-20.905 30.314-28.816 47.153-12.656 26.938-20.269 55.262-22.41 84.675-1.974 27.114-.666 54.355 6.181 80.973 6.401 24.882 16.047 48.371 29.524 70.329 13.726 22.364 31.072 41.533 51.176 58.125 16.457 13.582 34.66 24.54 54.402 32.919 24.197 10.27 49.376 16.735 75.515 18.435 14.367.934 28.897-.129 43.328-.81 21.607-1.02 42.3-6.91 62.623-13.672 20.287-6.751 38.888-17.152 56.404-29.465 19.67-13.827 36.692-30.559 51.277-49.446 14.816-19.187 26.424-40.41 34.83-63.336 7.666-20.908 12.813-42.391 14.178-64.524.876-14.208-.168-28.561-.801-42.829-.773-17.405-4.67-34.339-10.199-50.74-13.609-40.374-35.881-75.14-67.855-103.698-20.457-18.272-43.118-32.705-68.304-43.396-18.182-7.718-37.053-13.331-56.575-15.541-16.759-1.897-33.779-2.353-50.659-2.052-12.974.231-26.055 1.847-38.829 4.234-23.691 4.428-45.918 13.288-67.107 24.756-5.855 3.169-7.276 8.75-4.22 14.746-3.819 2.639-7.637 5.279-11.978 7.468-2.84-.923-5.883-2.998-8.481-2.541-6.42 1.129-7.872 6.026-5.537 14.066z"/>
    <!-- gray circle outline around the entire svg also creating the 'cat' shape -->
    <path fill="#465c66" d="M132.915 60.775c-3.763-5.787-2.343-11.368 3.513-14.537 21.189-11.468 43.416-20.328 67.107-24.756 12.774-2.388 25.856-4.003 38.829-4.234 16.88-.301 33.899.155 50.659 2.052 19.522 2.21 38.394 7.823 56.575 15.541 25.186 10.691 47.847 25.125 68.304 43.396 31.974 28.559 54.246 63.325 67.855 103.698 5.529 16.401 9.426 33.335 10.199 50.74.633 14.268 1.678 28.621.801 42.829-1.365 22.133-6.511 43.616-14.178 64.524-8.406 22.926-20.014 44.149-34.83 63.336-14.585 18.887-31.607 35.619-51.277 49.446-17.515 12.312-36.116 22.714-56.404 29.465-20.323 6.763-41.017 12.652-62.623 13.672-14.432.681-28.961 1.745-43.328.81-26.139-1.7-51.318-8.165-75.515-18.435-19.742-8.379-37.945-19.337-54.402-32.919-20.104-16.592-37.45-35.761-51.176-58.125-13.476-21.958-23.123-45.447-29.524-70.329-6.847-26.618-8.155-53.86-6.181-80.973 2.142-29.413 9.754-57.736 22.41-84.675 7.911-16.839 17.839-32.312 28.816-47.153 2.405-3.251 5.04-8.022 10.588-7.06 2.087.362 4.019 1.621 6.339 3.051 2.296 4.886.965 8.371-1.728 12.056-6.757 9.246-13.792 18.386-19.553 28.248-21.537 36.865-31.67 76.826-31.067 119.97 1.319 13.652 1.64 27.075 4.293 40.021 13.009 63.477 47.139 112.711 102.208 146.877 12.502 7.756 26.423 13.271 39.856 19.458 5.141 2.368 10.83.107 11.184-4.609.674-8.998.196-18.083.196-27.391l-10.132.679c-32.735 1.894-58.083-13.966-68.269-41.374-4.499-12.107-12.062-22.129-23.242-29.211-3.03-1.919-5.795-4.573-7.998-7.42-5.582-7.215-3.171-15.825 5.641-18.128 5.422-1.418 11.653-1.679 17.136-.566 16.58 3.364 27.657 14.318 36.368 28.256 11.353 18.165 28.415 24.12 48.714 17.286 1.437-.484 3.36-1.409 3.814-2.602 2.218-5.826 4.014-11.813 6.066-18.067l-7.922-1.66c-2.597-.586-5.187-1.211-7.763-1.884-27.05-7.06-49.894-20.267-64.911-44.745-11.362-18.52-15.563-39.098-17.089-60.427-1.945-27.195 3.368-52.34 20.504-74.293 1.019-1.305 1.463-3.739 1.058-5.371-4.288-17.302-3.233-34.346 1.936-51.265 4.118-13.478 7.373-15.587 21.326-13.748.66.087 1.308.252 1.966.36 17.801 2.914 33.265 11.292 48.453 20.443 2.158 1.301 5.403 2.083 7.784 1.536 35.189-8.081 70.303-8.089 105.484.034 2.262.522 5.206-.242 7.385-1.317 10.283-5.072 20.214-10.894 30.652-15.604 8.984-4.054 18.624-6.197 28.663-5.673 5.128.268 8.724 2.247 10.584 7.456 6.708 18.785 8.952 37.801 4.189 57.432-.457 1.883.192 4.632 1.362 6.215 7 9.468 12.508 19.656 15.961 30.919 6.007 19.595 5.318 39.525 2.266 59.411-6.775 44.157-30.665 73.929-74.188 86.724-7.131 2.096-14.396 3.736-21.821 5.643.145.741.137 1.426.407 1.973 6.15 12.415 7.752 25.688 7.651 39.334l-.119 52.988c.021 8.087 4.109 10.805 11.631 8.013 86.013-31.924 144.329-113.007 146.384-204.617.983-43.824-10.205-84.695-33.868-121.753-5.828-9.127-13.332-17.184-19.996-26.083-2.215-3.153-4.309-6.142-6.814-8.732-41.507-42.927-91.881-66.939-151.601-71.171-43.435-3.078-84.315 5.529-122.524 26.401-4.532 2.476-8.591 3.039-13.077.615M117.05 249.371c.649 6.793.978 13.635 2.001 20.372 5.655 37.232 25.522 62.669 62.352 73.171 11.15 3.179 22.787 4.639 34.19 6.94 6.775 1.367 9.553 8.363 4.794 13.166-7.284 7.349-10.491 16.279-12.609 26.081-.599 2.774-3.201 6.208-5.756 7.301-29.391 12.575-58.247 7.56-76.311-22.086-3.616-5.934-9.483-10.53-14.508-15.547-1.096-1.094-3.032-1.345-4.581-1.985 9.953 9.871 16.813 21.34 21.835 34.023 5.338 13.479 15.271 21.944 28.924 26.169 12.433 3.848 25.019 3.016 37.581.648 8.683-1.637 12.097 1.11 12.155 10.043l.179 27.996c.162 6.833-.69 13.298-5.487 19.405 36.701 8.462 72.638 7.651 107.155-.981-.772-7.928-1.981-15.234-2.097-22.557l-.082-52.492c-.189-12.539-2.621-24.569-11.643-34.16-2.751-2.925-5.158-5.712-3.52-10.087 1.613-4.308 5.31-5.03 9.21-5.659 8.045-1.297 16.158-2.345 24.081-4.188 29.403-6.84 52.231-22.079 63.698-51.255 5.861-14.911 7.829-30.546 8.359-46.45.77-23.121-5.591-43.715-21.204-61.126-2.565-2.86-3.188-5.94-1.835-9.676 5.478-15.123 4.712-30.352.719-45.688-1.057-4.058-2.729-5.203-6.919-4.343-16.822 3.454-31.464 11.554-45.504 20.921-3.933 2.624-7.603 3.162-12.195 1.991-35.391-9.022-70.849-9.097-106.235.042-4.405 1.137-7.853.402-11.762-1.84-10.365-5.947-20.83-11.801-31.659-16.821-5.89-2.73-12.602-3.685-19.21-5.514-5.689 17.441-7.149 33.875-1.328 50.453 1.326 3.775 1.402 7.151-1.389 10.235-16.094 17.779-22.465 38.881-21.397 63.499z"/>
    <!-- white fill within the gray circle, creating the 'crescent' shape -->
    <path fill="#fcfdfe" d="M33.203 259.964c-.68-42.695 9.453-82.656 30.99-119.521 5.761-9.861 12.796-19.001 19.553-28.248 2.693-3.685 4.024-7.17 2.032-11.879 6.802-7.049 13.618-13.694 21.13-20.643 6.945 5.095 14.098.746 14.626-4.977.174-1.891-.496-3.861-.78-5.795l11.809-8.022c4.84 2.32 8.899 1.756 13.431-.719 38.21-20.872 79.089-29.479 122.524-26.401 59.72 4.232 110.094 28.244 151.601 71.171 2.505 2.591 4.598 5.579 6.487 8.661-1.677-.765-2.996-1.764-4.232-2.858-62.621-55.418-135.226-75.267-215.844-53.707C117.697 80.783 62.115 139.975 39.024 229.15c-2.614 10.097-3.912 20.535-5.821 30.814z"/>
    <!-- gray dot within the gray outline -->
    <path fill="#495d67" d="M120.491 68.677c.545 2.159 1.216 4.128 1.041 6.02-.528 5.723-7.681 10.073-14.303 4.837-3.352-7.597-1.9-12.494 4.52-13.623 2.598-.457 5.64 1.618 8.742 2.766z"/>
    <!-- white fill within the 'cat' shape -->
    <path fill="#feffff" d="M117.046 248.886c-1.064-24.133 5.306-45.236 21.4-63.014 2.791-3.084 2.715-6.46 1.389-10.235-5.821-16.578-4.361-33.012 1.328-50.453 6.608 1.829 13.32 2.784 19.21 5.514 10.829 5.02 21.295 10.874 31.659 16.821 3.909 2.243 7.357 2.978 11.762 1.84 35.387-9.138 70.844-9.064 106.235-.042 4.592 1.171 8.261.633 12.195-1.991 14.04-9.367 28.681-17.467 45.504-20.921 4.189-.86 5.862.285 6.919 4.343 3.993 15.336 4.759 30.565-.719 45.688-1.353 3.736-.73 6.816 1.835 9.676 15.613 17.411 21.974 38.005 21.204 61.126-.53 15.904-2.498 31.539-8.359 46.45-11.468 29.176-34.295 44.415-63.698 51.255-7.924 1.843-16.037 2.891-24.081 4.188-3.9.629-7.597 1.351-9.21 5.659-1.638 4.375.769 7.162 3.52 10.087 9.022 9.591 11.454 21.621 11.643 34.16l.082 52.492c.116 7.323 1.325 14.629 2.097 22.557-34.516 8.632-70.453 9.443-107.155.981 4.797-6.108 5.648-12.572 5.487-19.405-.221-9.328-.119-18.664-.179-27.996-.057-8.933-3.472-11.68-12.155-10.043-12.561 2.368-25.148 3.2-37.581-.648-13.652-4.225-23.586-12.69-28.924-26.169-5.023-12.683-11.882-24.152-21.835-34.023 1.549.639 3.485.891 4.581 1.985 5.025 5.017 10.892 9.613 14.508 15.547 18.065 29.645 46.92 34.661 76.311 22.086 2.555-1.093 5.156-4.527 5.756-7.301 2.118-9.802 5.325-18.731 12.609-26.081 4.759-4.802 1.981-11.798-4.794-13.166-11.403-2.301-23.041-3.761-34.19-6.94-36.831-10.501-56.698-35.938-62.352-73.171-1.023-6.737-1.352-13.579-2.004-20.856z"/>
    <!-- blue filling within the svg -->
    <path fill="#80d8fe" d="M33.126 260.412c1.985-10.728 3.283-21.166 5.898-31.263 23.091-89.175 78.673-148.367 167.506-172.123 80.618-21.56 153.223-1.711 215.844 53.707 1.236 1.094 2.555 2.093 4.162 3.208 7.06 8.62 14.564 16.677 20.392 25.805 23.664 37.057 34.851 77.928 33.868 121.753-2.055 91.61-60.371 172.693-146.384 204.617-7.522 2.792-11.61.074-11.631-8.013l.119-52.988c.101-13.646-1.501-26.918-7.651-39.334-.271-.547-.262-1.232-.407-1.973 7.425-1.908 14.69-3.547 21.821-5.643 43.523-12.796 67.413-42.568 74.188-86.724 3.051-19.886 3.741-39.816-2.266-59.411-3.453-11.263-8.961-21.451-15.961-30.919-1.17-1.582-1.819-4.332-1.362-6.215 4.763-19.631 2.52-38.647-4.189-57.432-1.86-5.208-5.456-7.188-10.584-7.456-10.04-.524-19.679 1.619-28.663 5.673-10.438 4.71-20.369 10.532-30.652 15.604-2.179 1.075-5.123 1.839-7.385 1.317-35.181-8.124-70.295-8.116-105.484-.034-2.381.547-5.626-.236-7.784-1.536-15.188-9.152-30.652-17.529-48.453-20.443-.657-.108-1.306-.273-1.966-.36-13.953-1.839-17.208.27-21.326 13.748-5.169 16.919-6.223 33.963-1.936 51.265.404 1.632-.04 4.066-1.058 5.371-17.136 21.953-22.45 47.098-20.504 74.293 1.526 21.329 5.727 41.908 17.089 60.427 15.017 24.478 37.861 37.685 64.911 44.745 2.576.672 5.166 1.297 7.763 1.884 2.568.58 5.154 1.083 7.922 1.66-2.052 6.254-3.848 12.241-6.066 18.067-.454 1.193-2.378 2.119-3.814 2.602-20.299 6.835-37.361.879-48.714-17.286-8.711-13.937-19.788-24.892-36.368-28.256-5.484-1.113-11.714-.852-17.136.566-8.812 2.304-11.222 10.914-5.641 18.128 2.202 2.846 4.968 5.501 7.998 7.42 11.18 7.082 18.743 17.104 23.242 29.211 10.186 27.408 35.534 43.268 68.269 41.374l10.132-.679c0 9.308.479 18.393-.196 27.391-.354 4.717-6.043 6.978-11.184 4.609-13.433-6.188-27.354-11.702-39.856-19.458-55.069-34.166-89.199-83.4-102.208-146.877-2.653-12.946-2.974-26.369-4.293-40.021z"/>
</svg>