<svg xmlns="http://www.w3.org/2000/svg" width="100%" viewBox="0 0 512 512" height="150" xmlns:v="https://vecta.io/nano">
    <!-- black background path - remove from html -->
    <path d="M513 193v319.961H1.101V1.164H513V193M382.5 21c-82.151 0-164.303-.057-246.454.092-7.773.014-13.983-1.214-15.347-9.832h-19.325c-2.275 6.791-5.285 9.713-10.176 9.686-6.425-.036-9.244-4.301-10.587-9.755H61.407c-2.761 8.158-5.058 9.798-13.561 9.808-4.499.005-8.998-.002-13.498.002-10.165.009-13.347 3.221-13.348 13.499v444.92c0 10.476 3.15 13.58 13.771 13.58L378.71 493c9.732 0 11.333 1.046 14.986 9.832h18.824c2.488-7.063 5.498-9.946 10.528-9.775 6.164.21 9.028 4.2 10.288 9.792h19.044c3.34-8.585 5.215-9.846 14.506-9.85l12.998-.001c9.806-.013 13.113-3.34 13.114-13.244l-.001-445.92c0-9.452-3.434-12.831-13.014-12.833L382.5 21z"/>
    <!-- blue backgroung creating the square shape of the svg -->
    <path fill="#0274b3" d="M383 21l96.983.003c9.58.002 13.014 3.381 13.014 12.833l.001 445.92c0 9.904-3.308 13.231-13.114 13.244-4.333.006-8.665 0-12.998.001-9.291.003-11.166 1.265-14.506 9.85h-19.044c-1.26-5.592-4.124-9.582-10.288-9.792-5.03-.171-8.04 2.711-10.528 9.775h-18.824c-3.653-8.786-5.254-9.832-14.986-9.832-114.646 0-229.292 0-343.938-.001-10.621 0-13.771-3.104-13.771-13.58V34.499c0-10.277 3.182-13.489 13.348-13.499l13.498-.002c8.503-.01 10.801-1.65 13.561-9.808h19.202c1.343 5.454 4.162 9.719 10.587 9.755 4.891.027 7.901-2.895 10.176-9.686h19.325c1.364 8.618 7.574 9.846 15.347 9.832L383 21M281.223 190.119c-2.819-.76-5.632-2.156-8.457-2.179l-65.481-.092c-9.024.013-12.29 3.336-12.291 12.427l.001 228.935c.001 9.055 3.63 12.638 12.787 12.645l66.481.005c11.022-.001 14.397-3.312 14.401-14.189l.004-75.979-.012-54.485c-.034-9.802 3.549-17.983 11.192-24.01 9.782-7.714 20.852-8.896 31.956-3.645 11.183 5.288 17.072 14.816 17.118 27.216l.071 131.962c.002 9.725 3.45 13.122 13.31 13.126l65.981.003c11.008-.001 14.378-3.315 14.38-14.211l-.037-144.959c-.007-5.153-.224-10.35-.91-15.45-9.693-72.036-91.795-108.357-151.675-67.156l-3.896 2.597c-1.522-4.205-2.938-8.119-4.923-12.563M78.94 192.66c-.538 3.239-1.541 6.477-1.545 9.717l-.068 224.481c0 1.333-.063 2.671.026 3.999.481 7.151 4.356 10.96 11.57 10.98l70.994-.009c7.103-.025 11.071-4.126 11.074-11.32l.003-231.481c-.003-7.393-3.678-11.143-11.032-11.164-23.831-.068-47.665-.173-71.491.161-3.055.043-6.074 2.592-9.531 4.635m49.152-120.362c-33.445-1.327-58.933 24.461-56.176 57.333 1.741 20.754 12.796 35.626 31.701 43.75 19.573 8.411 38.407 5.529 54.635-8.318 16.193-13.817 22.354-31.923 17.024-52.585-6.08-23.573-22.221-36.699-47.185-40.179z"/>
    <!-- black line creating the outline of the 'n' -->
    <path fill="#020304" d="M281.508 190.384c1.701 4.179 3.117 8.093 4.639 12.298l3.896-2.597c59.881-41.201 141.982-4.881 151.675 67.156.686 5.1.903 10.297.91 15.45l.037 144.959c-.002 10.896-3.372 14.21-14.38 14.211-21.994.002-43.988.007-65.981-.003-9.86-.004-13.308-3.401-13.31-13.126l-.071-131.962c-.046-12.4-5.935-21.928-17.118-27.216-11.104-5.251-22.174-4.069-31.956 3.645-7.643 6.027-11.225 14.208-11.192 24.01l.012 54.485-.004 75.979c-.005 10.877-3.38 14.189-14.401 14.189-22.16.002-44.321.011-66.481-.005-9.157-.007-12.786-3.59-12.787-12.645l-.001-228.935c.001-9.091 3.266-12.414 12.291-12.427l65.481.092c2.825.024 5.638 1.419 8.741 2.444M369.004 357.5v64.013h53.204c.111-1.105.264-1.923.264-2.74l-.016-138.982a75.71 75.71 0 0 0-5.984-29.635c-23.035-54.613-95.531-64.053-132.319-17.221-4.286 5.456-7.897 6.92-12.746 5.166-4.61-1.668-6.552-5.061-6.576-11.593l-.005-18.508h-49.43v213.524h53.087V415.8l.176-115.483c.076-7.667 1.193-15.782 3.932-22.88 8.501-22.029 32.487-34.625 55.463-30.178 23.254 4.501 40.505 24.608 40.855 48.251l.093 61.991z"/>
    <!-- black line creating the bottom outline of the lowercase 'i' -->
    <path fill="#030405" d="M79.15 192.333c3.246-1.715 6.266-4.265 9.321-4.308l71.491-.161c7.354.021 11.029 3.77 11.032 11.164l-.003 231.481c-.003 7.194-3.971 11.295-11.074 11.32l-70.994.009c-7.214-.021-11.088-3.829-11.57-10.98-.089-1.327-.026-2.666-.026-3.999l.068-224.481c.004-3.24 1.007-6.478 1.755-10.044M97.519 261.5v160.012h53.177V208.172H97.519V261.5z"/>
    <!-- black line creating the circle outline of the 'dot' in a lowercase 'i' -->
    <path fill="#010203" d="M128.538 72.345c24.518 3.433 40.658 16.559 46.739 40.132 5.33 20.662-.831 38.769-17.024 52.585-16.228 13.847-35.062 16.729-54.635 8.318-18.905-8.124-29.96-22.995-31.701-43.75-2.757-32.872 22.73-58.66 56.622-57.285m-7.544 20.048l-2.452.457c-17.898 3.087-29.619 20.04-26.472 38.291 2.932 16.999 19.974 28.948 37.223 26.098 17.222-2.845 29.167-18.095 27.603-35.24-1.609-17.635-16.465-30.226-35.902-29.607z"/>
    <!-- white fill for the 'n' -->
    <path fill="#fefefe" d="M369.004 357l-.093-61.491c-.35-23.643-17.6-43.75-40.855-48.251-22.976-4.447-46.962 8.15-55.463 30.178-2.739 7.097-3.856 15.212-3.932 22.88l-.176 115.483v5.726h-53.087V208.001h49.43l.005 18.508c.024 6.532 1.966 9.925 6.576 11.593 4.848 1.754 8.46.29 12.746-5.166 36.788-46.832 109.284-37.392 132.319 17.221a75.71 75.71 0 0 1 5.984 29.635l.016 138.982c0 .818-.154 1.635-.264 2.74h-53.204V357z"/>
    <!-- white fill for the bottom outline of the lowercase 'i' -->
    <path fill="#fff" d="M97.519 261v-52.828h53.177v213.341H97.519V261z"/>
    <!-- white fill for the 'dot' outline in the lowercase 'i' -->
    <path fill="#fdfdfd" d="M121.423 92.347c19.008-.573 33.864 12.018 35.473 29.653 1.564 17.146-10.38 32.395-27.603 35.24-17.249 2.85-34.292-9.099-37.223-26.098-3.147-18.251 8.574-35.204 26.472-38.291l2.881-.504z"/>
</svg>