<svg id="visual" viewBox="0 0 960 450" width="960" height="450" xmlns="http://www.w3.org/2000/svg" xmlns:xlink="http://www.w3.org/1999/xlink" version="1.1"><rect x="0" y="0" width="960" height="450" fill="#000000"></rect><path d="M0 147L16 140C32 133 64 119 96 117.3C128 115.7 160 126.3 192 137.8C224 149.3 256 161.7 288 167.3C320 173 352 172 384 165.3C416 158.7 448 146.3 480 143.2C512 140 544 146 576 151.3C608 156.7 640 161.3 672 157.7C704 154 736 142 768 145.5C800 149 832 168 864 172C896 176 928 165 944 159.5L960 154L960 0L944 0C928 0 896 0 864 0C832 0 800 0 768 0C736 0 704 0 672 0C640 0 608 0 576 0C544 0 512 0 480 0C448 0 416 0 384 0C352 0 320 0 288 0C256 0 224 0 192 0C160 0 128 0 96 0C64 0 32 0 16 0L0 0Z" fill="#0c0c0c"></path><path d="M0 100L16 99.3C32 98.7 64 97.3 96 100.8C128 104.3 160 112.7 192 117.3C224 122 256 123 288 126.2C320 129.3 352 134.7 384 129.3C416 124 448 108 480 107.8C512 107.7 544 123.3 576 127.5C608 131.7 640 124.3 672 120.5C704 116.7 736 116.3 768 115.8C800 115.3 832 114.7 864 110.7C896 106.7 928 99.3 944 95.7L960 92L960 0L944 0C928 0 896 0 864 0C832 0 800 0 768 0C736 0 704 0 672 0C640 0 608 0 576 0C544 0 512 0 480 0C448 0 416 0 384 0C352 0 320 0 288 0C256 0 224 0 192 0C160 0 128 0 96 0C64 0 32 0 16 0L0 0Z" fill="#131313"></path><path d="M0 70L16 75.7C32 81.3 64 92.7 96 90.3C128 88 160 72 192 68.2C224 64.3 256 72.7 288 72.3C320 72 352 63 384 69.8C416 76.7 448 99.3 480 100.2C512 101 544 80 576 76C608 72 640 85 672 96C704 107 736 116 768 114.5C800 113 832 101 864 92.5C896 84 928 79 944 76.5L960 74L960 0L944 0C928 0 896 0 864 0C832 0 800 0 768 0C736 0 704 0 672 0C640 0 608 0 576 0C544 0 512 0 480 0C448 0 416 0 384 0C352 0 320 0 288 0C256 0 224 0 192 0C160 0 128 0 96 0C64 0 32 0 16 0L0 0Z" fill="#191919"></path><path d="M0 80L16 73.8C32 67.7 64 55.3 96 49.8C128 44.3 160 45.7 192 51C224 56.3 256 65.7 288 69.2C320 72.7 352 70.3 384 63.7C416 57 448 46 480 49.2C512 52.3 544 69.7 576 76.5C608 83.3 640 79.7 672 71.5C704 63.3 736 50.7 768 48.8C800 47 832 56 864 56C896 56 928 47 944 42.5L960 38L960 0L944 0C928 0 896 0 864 0C832 0 800 0 768 0C736 0 704 0 672 0C640 0 608 0 576 0C544 0 512 0 480 0C448 0 416 0 384 0C352 0 320 0 288 0C256 0 224 0 192 0C160 0 128 0 96 0C64 0 32 0 16 0L0 0Z" fill="#1f1f1f"></path><path d="M0 18L16 22.3C32 26.7 64 35.3 96 36.3C128 37.3 160 30.7 192 27.8C224 25 256 26 288 29.2C320 32.3 352 37.7 384 38.2C416 38.7 448 34.3 480 31.2C512 28 544 26 576 28C608 30 640 36 672 36.7C704 37.3 736 32.7 768 35.2C800 37.7 832 47.3 864 46.5C896 45.7 928 34.3 944 28.7L960 23L960 0L944 0C928 0 896 0 864 0C832 0 800 0 768 0C736 0 704 0 672 0C640 0 608 0 576 0C544 0 512 0 480 0C448 0 416 0 384 0C352 0 320 0 288 0C256 0 224 0 192 0C160 0 128 0 96 0C64 0 32 0 16 0L0 0Z" fill="#252525"></path></svg>