<svg xmlns="http://www.w3.org/2000/svg" width="100%" viewBox="0 0 512 512" height="150" xmlns:v="https://vecta.io/nano">
    <!-- black background path - remove from html -->
    <path fill="#010101" d="M513 204v308.962H1.1V1.163H513V204M309.018 60.284l-39.097-38.409c-7.508-7.292-17.192-8.14-24.106-1.532l-41.718 40.796-12.556 12.326H322.69l-13.672-13.182M446.264 240.91L308.378 379.638l58.042 31.913 80.931 44.44 21.384 11.746V220.022l-22.472 20.888m-4.355 257.075c3.637-.003 7.28.129 10.909-.036 7.812-.355 13.457-5.021 15.735-13.228l-22.107-11.991-180.061-99.039c-7.052-3.886-13.449-2.973-20.266.787L75.648 468.193l-30.362 16.797c3.203 9.266 8.706 13.001 18.778 13.002l270.887.006c7.852 0 9.196.889 11.854 7.872h16.333c2.707-7.012 4.014-7.857 11.888-7.875l66.884-.011m-40.838-409.11l-298.676-.032c-11.593.002-18.47 7.068-18.498 18.781l-.005 61.933.014 51.34c-.008 2.166.247 4.372-.073 6.491-.905 5.984 1.537 10.074 5.795 14.291l127.117 126.664c1.144 1.142 2.354 2.217 3.51 3.302l19.158-10.575c11.695-6.71 23.318-6.778 35.047-.093 6.329 3.607 12.763 7.032 19.268 10.605.897-.773 1.68-1.366 2.369-2.054l131.528-131.44c1.502-1.506 2.369-4.318 2.385-6.53l.045-70.48c-.04-6.253.206-11.917 7.796-12.975v-15.916c-7.033-3.046-7.725-4.158-7.737-12.175-.008-4.998.139-10.005-.088-14.994-.387-8.487-7.18-15.519-15.576-16.046-4.135-.259-8.307.053-13.378-.097M44.668 352.55v115.589l160.324-88.101L45.256 219.285c-.219 3.43-.559 6.326-.564 9.221l-.031 78.966c-.004 7.074-1.067 8.598-7.514 11.09v16.871c6.128 2.051 7.425 3.817 7.515 10.141l.005 6.975m400.428-136.549l.217 3.614 12.369-11.891-12.587-13.395v21.672m-379.093-19.39l-10.002 9.399 12.47 13.809v-25.434c-1.01.874-1.502 1.3-2.468 2.226z"/>
    <!-- white portion of the letter outside of the '@' symbol -->
    <path fill="#f6f8f9" d="M84.122 219.983l-.229-50.425.005-61.933c.028-11.713 6.904-18.779 18.498-18.781l299.176.484c4.802 7.052 6.527 14.234 6.494 22.157l-.085 116.964c-.005 7.988-2.669 14.826-8.452 20.585l-94.408 94.332c-7.186 7.184-14.105 7.826-22.91 2.467-4.54-2.763-9.178-5.432-13.999-7.65-7.293-3.356-14.883-3.425-22.204-.1-4.832 2.195-9.479 4.852-14.028 7.602-9.325 5.637-15.842 4.94-23.638-2.855L89.196 223.754c-1.476-1.473-3.373-2.524-5.074-3.771m115.624-30.594c14.208-43.189 66.179-56.912 99.271-26.212 17.978 16.679 22.883 40.331 12.698 62.457-1.348 2.93-3.534 5.695-5.937 7.866-3.601 3.253-8.214 4.991-12.904 2.914-4.6-2.037-4.931-6.585-4.9-11.12l.188-55.977c.001-5.346-2.594-8.307-7.061-8.476-4.48-.17-7.23 2.531-7.92 7.792-.103.784-.164 1.574-.275 2.65-.856-.416-1.447-.666-2.003-.979-13.78-7.755-28.951-5.773-40.323 5.274-18.252 17.729-15.722 52.336 4.913 67.209 11.57 8.339 25.792 8.033 37.034-.792l3.119-2.399c5.078 8.466 11.963 13.184 21.907 12.515 10.982-.739 19.592-5.899 24.954-15.204 9.525-16.53 12.853-34.418 6.719-52.819-9.917-29.75-31.104-47.605-61.921-51.64-31.298-4.098-56.848 7.901-73.652 34.845-16.765 26.881-16.199 54.805.867 81.44 13.737 21.439 34.403 32.194 59.711 34.004 4.954.354 8.43-2.554 8.773-6.886.347-4.376-2.569-7.442-7.603-8.044-3.304-.395-6.65-.613-9.896-1.297-34.845-7.346-56.141-42.283-45.76-77.119z"/>
    <!-- yellow portion of the envelope bottom flap -->
    <path fill="#fdd402" d="M440.987 497.829l-65.961.167c-7.874.018-9.181.863-11.888 7.875h-16.333c-2.658-6.983-4.003-7.872-11.854-7.872-90.296-.001-180.591.003-270.887-.006-10.072-.001-15.574-3.736-18.778-13.002l30.362-16.797 170.472-93.716c6.817-3.76 13.215-4.673 20.266-.787l180.332 99.713c1.3 9.357-1.246 17.136-5.732 24.425z"/>
    <!-- white portion of both the envelope left/right flap -->
    <path d="M44.668 352.061l-.005-6.486c-.09-6.324-1.388-8.09-7.515-10.141v-16.871c6.447-2.492 7.51-4.016 7.514-11.09l.031-78.966c.005-2.896.345-5.791.564-9.221l159.736 160.753L44.669 468.14V352.061zm402.209 103.487l-80.457-43.997-58.042-31.913 138.23-138.379.386 120.817-.117 93.473z" fill="#f6f8f9"/>
    <!-- gray shadow within the top seal flap -->
    <path fill="#dce6ea" d="M84.014 220.44c1.808.79 3.706 1.841 5.181 3.314L208.343 342.83c7.796 7.795 14.312 8.491 23.638 2.855 4.549-2.75 9.196-5.407 14.028-7.602 7.32-3.325 14.911-3.256 22.204.1 4.821 2.218 9.459 4.887 13.999 7.65 8.805 5.359 15.724 4.717 22.91-2.467l94.408-94.332c5.783-5.759 8.447-12.597 8.452-20.585l.085-116.964c.033-7.923-1.691-15.105-6.035-22.055 4.113-.404 8.284-.717 12.42-.457 8.396.526 15.189 7.559 15.576 16.046.227 4.989.081 9.995.088 14.994.012 8.017.704 9.129 7.737 12.175v15.916c-7.59 1.057-7.835 6.721-7.796 12.975l-.045 70.48c-.016 2.212-.883 5.024-2.385 6.53l-131.528 131.44c-.689.687-1.472 1.28-2.369 2.054l-19.268-10.605c-11.729-6.685-23.352-6.617-35.047.093-6.197 3.555-12.507 6.913-19.158 10.575-1.156-1.084-2.366-2.16-3.51-3.302L89.629 241.679c-4.258-4.217-6.7-8.307-5.795-14.291.321-2.119.065-4.325.18-6.948z"/>
    <!-- gray shadow along the right flap -->
    <path fill="#dce6eb" d="M447.115 455.769l-.12-93.694-.071-120.96c7.158-7.271 14.345-14.049 21.813-21.093v247.714l-21.622-11.967z"/>
    <!-- blue portion of the envelope top flap -->
    <path fill="#8db9fd" d="M204.707 60.909l41.108-40.566c6.914-6.609 16.598-5.76 24.106 1.532l38.758 38.748-103.972.286z"/>
    <!-- blueish shadow of within the top flap -->
    <path fill="#779ff9" d="M204.402 61.024l104.427-.092c4.696 3.923 8.903 7.876 13.861 12.533H191.541l12.861-12.441z"/>
    <!-- yellow right corner of the bottom flap -->
    <path fill="#f6c300" d="M441.448 497.907c4.024-7.367 6.57-15.147 5.54-24.28 7.228 3.42 14.458 7.289 21.566 11.094-2.278 8.207-7.923 12.873-15.735 13.228-3.63.165-7.273.033-11.371-.042z"/>
    <!-- blue portion of top flap behind the left/right sides of the letter -->
    <path d="M445.096 215.556v-21.228l12.587 13.395-12.369 11.891-.217-4.059zM66.24 196.361l2.231-1.976v25.434l-12.47-13.809 10.239-9.65z" fill="#88b3f5"/>
    <!-- black line creating the '@' shap on the letter -->
    <path fill="#040404" d="M199.596 189.764c-10.232 34.461 11.064 69.398 45.909 76.744 3.246.684 6.592.902 9.896 1.297 5.034.603 7.95 3.669 7.603 8.044-.343 4.332-3.819 7.24-8.773 6.886-25.308-1.81-45.974-12.565-59.711-34.004-17.066-26.635-17.633-54.559-.867-81.44 16.805-26.944 42.355-38.943 73.652-34.845 30.817 4.035 52.004 21.89 61.921 51.64 6.134 18.402 2.806 36.289-6.719 52.819-5.362 9.306-13.972 14.465-24.954 15.204-9.944.669-16.83-4.048-21.907-12.515l-3.119 2.399c-11.241 8.825-25.464 9.131-37.034.792-20.635-14.873-23.165-49.48-4.913-67.209 11.373-11.047 26.543-13.028 40.323-5.274.556.313 1.147.563 2.003.979l.275-2.65c.69-5.261 3.44-7.962 7.92-7.792 4.467.169 7.062 3.13 7.061 8.476l-.188 55.977c-.032 4.535.3 9.083 4.9 11.12 4.69 2.078 9.303.339 12.904-2.914 2.403-2.171 4.589-4.936 5.938-7.866 10.184-22.127 5.28-45.778-12.698-62.457-33.092-30.7-85.062-16.978-99.42 26.587m66.868 37.137c7.24-10.097 8.355-21.131 4.597-32.699-2.286-7.038-6.62-12.366-14.524-13.349-8.366-1.041-14.441 2.87-18.831 9.649-6.499 10.034-5.74 25.755 1.555 35.262 7.709 10.046 17.754 10.683 27.203 1.138z"/>
    <!-- white filling of the center of the 'a' in the @' thats on the letter -->
    <path fill="#f5f6f7" d="M266.229 227.179c-9.214 9.266-19.259 8.629-26.968-1.416-7.296-9.507-8.055-25.228-1.555-35.262 4.391-6.779 10.466-10.689 18.831-9.649 7.904.983 12.238 6.311 14.524 13.349 3.758 11.568 2.643 22.602-4.832 32.977z"/>
</svg>