<svg xmlns="http://www.w3.org/2000/svg" width="100%" viewBox="0 0 512 512" height="150" xmlns:v="https://vecta.io/nano">
    <!-- black background path - remove from HTML -->
    <path d="M340 513H1.041V1.104h511.793V513H340M168.514 370.009c22.638 17.817 48.438 28.272 76.98 30.74 15.529 1.342 31.298.974 46.755-2.712 31.848-7.595 58.549-23.417 79.811-48.49 12.897-15.209 22.368-32.177 28.123-51.222 2.001-6.623 1.749-13.141-3.655-18.167-5.085-4.729-11.373-5.285-17.844-3.382-18.485 5.436-37.36 6.259-55.91 1.915-27.05-6.335-49.705-20.226-66.565-42.916-22.718-30.575-28.706-64.101-18.789-100.737 1.785-6.594.98-13.012-4.117-18.226-4.908-5.021-11.56-5.257-17.04-3.218-11.745 4.372-23.5 9.262-34.263 15.614-23.464 13.847-41.182 33.573-53.454 57.865-11.529 22.82-16.884 47.021-15.735 72.803.58 13.016 2.482 25.631 6.262 37.976 8.856 28.928 25.384 52.704 49.442 72.158m221.46-232.046c5.407.319 10.336-.829 14.314-4.766l11.996-12.012c5.702-5.94 5.437-16.853-.361-22.848-5.853-6.053-17.23-6.397-23.214-.522-3.445 3.381-6.58 7.131-10.303 10.165-10.5 8.557-7.976 26.005 7.569 29.984M122.974 414.537c3.411-3.417 6.94-6.725 10.206-10.275 5.711-6.209 6.745-16.247-.688-23.532-6.309-6.182-17.028-5.423-22.853.178-3.959 3.807-8.29 7.383-11.501 11.761-2.458 3.352-4.872 7.852-4.73 11.747.241 6.621 3.349 12.67 10.509 14.963 6.951 2.227 13.328 1.243 19.057-4.844m268.157-37.581c-6.655.224-11.01 3.698-13.324 9.75-2.42 6.331-1.688 12.351 2.927 17.451 3.684 4.071 7.73 7.814 11.625 11.693 5.834 5.81 15.354 6.14 21.724 1.448 6.291-4.633 8.581-13.274 4.675-20.385-2.549-4.641-7.087-8.169-10.612-12.3-4.293-5.032-9.322-8.419-17.015-7.657M98.434 121.954l10.97 10.926c4.438 4.337 12.097 5.398 17.952 3.393 11.374-3.894 12.796-20.153 5.407-27.056-3.891-3.635-7.191-8.02-11.455-11.1-3.369-2.433-7.858-4.829-11.751-4.679-6.385.246-12.233 3.095-14.711 10.111-2.334 6.605-1.624 12.548 3.588 18.405m173.562-49.906l.494-29.027c.002-.126-.23-.239-.289-.384-3.101-7.648-8.975-10.119-16.894-9.717-7.99.406-14.275 6.353-14.303 14.334l.033 19.97a12.45 12.45 0 0 0 .827 4.217c2.102 5.472 6.041 8.857 11.928 9.528 7.544.861 14.077-.762 18.204-8.922M33.02 261.83c3.013 8.036 8.592 11.855 17.366 11.244 5.629-.392 11.308-.003 16.962-.12 1.574-.033 3.254-.359 4.683-1.001 7.288-3.277 9.463-9.216 9.046-16.853-.415-7.596-6.48-14.047-14.032-14.091-6.82-.04-13.642-.088-20.46.047a12.99 12.99 0 0 0-5.141 1.206c-8.063 3.808-9.091 10.9-8.424 19.569M460.458 273c3.58-.236 7.411.263 10.691-.856 7.586-2.589 9.942-7.245 9.851-17.108-.07-7.56-6.456-13.987-14.003-14.029-6.648-.036-13.298-.078-19.944.04-1.736.031-3.603.333-5.168 1.044-7.263 3.299-8.982 9.302-9.092 16.88-.092 6.308 7.96 14.868 14.224 14.121 4.097-.489 8.299-.092 13.441-.092M252.171 433.022c-8.043 3.009-11.855 8.595-11.245 17.369.391 5.629.002 11.308.119 16.962.033 1.574.36 3.254 1.003 4.683 3.279 7.287 9.218 9.458 16.854 9.042 7.591-.414 14.046-6.483 14.089-14.03l-.047-20.46c-.034-1.728-.467-3.578-1.205-5.141-3.807-8.064-10.9-9.092-19.568-8.424z"/>
    <!-- yellow moon fill -->
    <path fill="#ffce61" d="M168.256 369.753c-23.801-19.198-40.328-42.973-49.184-71.902-3.779-12.345-5.682-24.959-6.262-37.976-1.149-25.782 4.206-49.984 15.735-72.803 12.273-24.292 29.99-44.018 53.454-57.865 10.763-6.352 22.518-11.242 34.263-15.614 5.48-2.04 12.132-1.803 17.04 3.218 5.096 5.214 5.901 11.632 4.117 18.226-9.916 36.636-3.929 70.162 18.789 100.737 16.86 22.691 39.515 36.582 66.565 42.916 18.55 4.344 37.426 3.521 55.91-1.915 6.471-1.903 12.759-1.347 17.844 3.382 5.404 5.026 5.656 11.544 3.655 18.167-5.754 19.045-15.225 36.013-28.123 51.222-21.262 25.073-47.962 40.895-79.811 48.49-15.457 3.686-31.227 4.055-46.755 2.712-28.542-2.467-54.342-12.923-77.238-30.996z"/>
    <!-- yellow sun rays fill -->
    <path d="M389.577 137.824c-15.148-3.84-17.672-21.288-7.173-29.845 3.723-3.034 6.859-6.784 10.303-10.165 5.984-5.874 17.361-5.53 23.214.522 5.798 5.996 6.063 16.909.361 22.848-3.918 4.082-7.974 8.031-11.996 12.012-3.978 3.938-8.907 5.085-14.71 4.627zM122.713 414.785c-5.468 5.838-11.844 6.821-18.796 4.595-7.16-2.293-10.268-8.343-10.509-14.963-.142-3.896 2.272-8.395 4.73-11.747 3.211-4.379 7.542-7.954 11.501-11.761 5.825-5.602 16.544-6.361 22.853-.178 7.433 7.285 6.399 17.323.688 23.532-3.266 3.55-6.795 6.858-10.467 10.524zm268.794-37.992c7.318-.599 12.347 2.787 16.64 7.82 3.524 4.131 8.062 7.659 10.612 12.3 3.906 7.111 1.616 15.752-4.675 20.385-6.37 4.692-15.891 4.362-21.724-1.448-3.895-3.879-7.941-7.623-11.625-11.693-4.615-5.1-5.347-11.12-2.927-17.451 2.313-6.052 6.668-9.526 13.699-9.912zM98.187 121.684c-4.965-5.587-5.675-11.53-3.341-18.135 2.479-7.016 8.327-9.865 14.711-10.111 3.893-.15 8.382 2.246 11.751 4.679 4.265 3.08 7.564 7.465 11.455 11.1 7.389 6.903 5.967 23.162-5.407 27.056-5.855 2.005-13.513.944-17.952-3.393l-11.218-11.196zM271.85 72.426c-3.981 7.781-10.514 9.404-18.058 8.543-5.887-.672-9.826-4.057-11.928-9.528a12.45 12.45 0 0 1-.827-4.217l-.033-19.97c.028-7.981 6.313-13.929 14.303-14.334 7.919-.402 13.793 2.069 16.894 9.717.059.145.291.258.289.384l-.64 29.405zM33.011 261.397c-.658-8.235.37-15.327 8.433-19.135a12.99 12.99 0 0 1 5.141-1.206c6.818-.135 13.64-.087 20.46-.047 7.552.044 13.617 6.495 14.032 14.091.417 7.637-1.758 13.576-9.046 16.853-1.429.642-3.109.969-4.683 1.001-5.654.117-11.333-.272-16.962.12-8.774.611-14.354-3.208-17.375-11.677zM459.965 273c-4.648 0-8.851-.396-12.948.092-6.264.747-14.316-7.812-14.224-14.121.11-7.578 1.829-13.581 9.092-16.88 1.565-.711 3.432-1.013 5.168-1.044 6.646-.117 13.296-.076 19.944-.04 7.547.041 13.933 6.468 14.003 14.029.091 9.863-2.265 14.52-9.851 17.108-3.279 1.119-7.11.62-11.184.856zm-207.36 160.012c8.235-.658 15.327.37 19.135 8.434a12.99 12.99 0 0 1 1.205 5.141c.135 6.818.086 13.64.047 20.46-.043 7.547-6.498 13.616-14.089 14.03-7.636.416-13.575-1.755-16.854-9.042-.643-1.429-.97-3.109-1.003-4.683-.117-5.654.272-11.333-.119-16.962-.61-8.774 3.202-14.359 11.678-17.378z" fill="#ffb666"/>
</svg>