<svg xmlns="http://www.w3.org/2000/svg" width="100%" viewBox="0 0 512 512" height="150" xmlns:v="https://vecta.io/nano">
    <path fill="#010101" d="M513 178v334.959H1.103V1.166H513V178M23.766 401.916l.059 67.967c.158 15.155 11.75 27.165 26.398 28.06 14.879.908 27.975-9.762 29.932-24.915.763-5.909.521-11.96.551-17.948.094-18.561 10.572-29.076 29.121-29.077l224.895-.002h5.649c1.19-4.619-.105-6.819-4.231-8.451-4.574-1.809-8.802-4.673-12.865-7.527-2.507-1.761-4.215-1.937-7.009-.404-4.149 2.277-8.655 4.635-13.237 5.245-10.945 1.457-17.63-5.074-22.767-14.669l-5.399-9.55c-7.18-12.676-4.261-24.187 8.45-31.261 4.492-2.5 7.364-4.805 5.872-10.556-.77-2.968-.798-6.463-.032-9.429 1.728-6.686-1.581-9.511-6.928-12.464-11.321-6.252-14.288-18.242-7.992-29.544 2.912-5.228 5.836-10.459 9.005-15.532 5.363-8.586 15.505-12.247 24.757-8.813 4.275 1.586 8.434 5.613 12.402 5.313 4.078-.308 7.568-5.375 11.837-6.871 7.115-2.493 9.029-6.656 8.769-14.005-.415-11.721 8.746-20.284 20.524-20.552 6.162-.14 12.333-.143 18.496.001 11.893.278 20.56 9.064 20.897 21.04.065 2.331-.108 4.675.074 6.994.079 1.006.505 2.464 1.238 2.863 5.169 2.818 10.459 5.413 16.048 8.251l.004-26.839c.014-7.039 1.132-8.669 7.593-11.12v-19.13c-6.381-1.203-7.672-5.617-7.661-11.447l.056-177.477c-.003-10.114-3.884-14.065-13.762-14.066H37.556c-9.945.001-13.797 3.904-13.813 14.007l-.012 53.993c-.004 7.421-.885 8.739-7.632 11.582v18.909c6.603 2.388 7.633 3.941 7.633 11.571l.013 268.965c0 1.991.157 3.981.021 6.886M352.5 497.998l108.965-.034c16.301-.045 28.319-11.986 28.754-28.274.133-4.995.064-9.996.033-14.994-.059-9.667-4.038-13.676-13.63-13.688l-54.982-.006c-103.967 0-207.933-.002-311.9.004-10.046.001-13.948 3.872-14.01 13.812-.032 5.164.077 10.333-.108 15.492-.366 10.198-4.057 19.247-10.757 27.688h6.302l128.459.003c7.033.001 8.51 1.089 10.785 7.895h18.889c2.43-6.823 3.95-7.895 11.231-7.896l91.971-.002m7.175-72h26.275l-.023-10.498c-.158-4.484 2.24-6.694 6.063-8.682 7.915-4.117 15.641-8.647 23.167-13.442 3.459-2.204 6.447-3.148 10.118-.947 3.856 2.311 7.775 4.52 11.723 6.672 3.449 1.88 6.56 1.318 8.656-2.073 3.064-4.956 6.06-9.97 8.744-15.137 1.972-3.797 1.028-7.059-2.933-9.256-3.785-2.1-7.47-4.381-11.231-6.525-3.496-1.994-4.838-5.022-4.034-8.845 1.912-9.092 1.995-18.147.042-27.241-.866-4.033.47-7.165 4.18-9.241 3.778-2.114 7.472-4.377 11.232-6.524 3.966-2.264 4.628-5.573 2.64-9.339-2.563-4.857-5.346-9.606-8.223-14.285-2.542-4.135-5.323-4.77-9.718-2.389-3.513 1.903-6.995 3.879-10.377 6.002-3.921 2.461-7.162 1.771-11.009-.724-7.482-4.852-15.286-9.244-23.179-13.407-3.61-1.904-5.942-4.049-5.856-8.324.087-4.331.065-8.667-.008-12.999-.074-4.399-2.294-6.836-6.792-6.874l-16.5-.012c-4.477.004-6.802 2.199-6.812 6.729l-.037 13c-.069 3.831-1.863 6.359-5.384 8.236-8.166 4.353-16.264 8.879-24.088 13.811-3.701 2.333-6.844 2.951-10.592.622-3.534-2.196-7.158-4.255-10.806-6.259-3.821-2.1-7.04-1.493-9.336 2.442l-8.308 14.241c-2.289 3.917-1.323 7.053 2.413 9.346 3.689 2.263 7.486 4.351 11.222 6.538 3.711 2.172 4.731 5.157 4.434 9.61-.582 8.736-.684 17.575-.015 26.297.379 4.94-.977 7.999-5.022 10.293-3.621 2.054-7.286 4.042-10.811 6.25-3.495 2.189-4.489 5.252-2.344 8.98l8.566 14.668c2.192 3.706 5.319 4.3 8.961 2.367 3.235-1.716 6.381-3.6 9.548-5.443 6.398-3.722 7.72-3.275 13.842 1.09 5.649 4.028 11.61 7.812 17.89 10.715 9.596 4.436 9.834 4.181 9.855 14.669.003 1.333-.326 2.82.162 3.949.378.876 1.791 1.306 3.704 1.939m55.72.005c.958-.727 2.692-1.404 2.744-2.19.275-4.203.13-8.434.13-13.114-4.751 2.603-8.588 5.394-12.878 6.87-4.655 1.602-4.976 4.323-4.106 8.435h14.111z"/>
    <path fill="#f8f5f5" d="M23.986 401.002l-.241-5.972-.013-268.965c0-7.63-1.03-9.184-7.633-11.571V95.585c6.747-2.844 7.628-4.161 7.632-11.582l.012-53.993c.015-10.103 3.868-14.006 13.813-14.007h366.953c9.878.001 13.76 3.952 13.762 14.066l-.056 177.477c-.01 5.83 1.281 10.244 7.661 11.447v19.13c-6.461 2.45-7.578 4.081-7.593 11.12l-.004 26.839-16.048-8.251c-.733-.4-1.159-1.857-1.238-2.863-.181-2.319-.008-4.663-.074-6.994-.336-11.976-9.004-20.762-20.897-21.04-6.162-.144-12.333-.141-18.496-.001-11.778.268-20.939 8.831-20.524 20.552.26 7.349-1.653 11.512-8.769 14.005-4.269 1.496-7.758 6.562-11.837 6.871-3.968.3-8.126-3.727-12.402-5.313-9.252-3.433-19.394.228-24.757 8.813-3.169 5.073-6.093 10.304-9.005 15.532-6.295 11.302-3.328 23.292 7.992 29.544 5.347 2.953 8.656 5.778 6.928 12.464-.766 2.965-.739 6.46.032 9.429 1.492 5.751-1.381 8.057-5.872 10.556-12.711 7.074-15.631 18.586-8.45 31.261 1.802 3.182 3.6 6.366 5.024 9.927l-118.052.445c-2.487.002-4.975.182-7.644 0-2.096-4.082-5.407-4.88-9.337-4.873-30.737.057-61.475.079-92.212-.024-4.221-.014-7.388 1.289-10.024 4.907l-18.633-.025m163.495-111.246l7.496-.002c18.154-.078 30.281-11.722 30.457-29.779l-.009-65.468c-.19-17.843-12.227-29.502-30.115-29.527-40.814-.055-81.629-.059-122.443.003-17.97.027-29.885 12.107-29.923 30.187l-.008 62.971c.01 19.966 11.647 31.608 31.603 31.613l112.942.003M292.5 131.037c-74.656 0-149.311 0-223.967.002-1.666 0-3.373-.192-4.99.1-4.101.742-6.618 3.196-6.537 7.507.081 4.284 2.599 6.703 6.765 7.293 1.636.232 3.327.091 4.993.091l304.456-.002c1.832 0 3.715.201 5.486-.144 3.865-.753 6.223-3.153 6.307-7.218.085-4.086-2.247-6.506-6.045-7.453-1.419-.354-2.982-.17-4.48-.17l-81.988-.005m-30.408 221.548c1.165-.043 2.348.033 3.49-.149 4.181-.666 6.567-3.066 6.644-7.397.075-4.18-2.604-6.922-7.153-7.396-1.321-.138-2.662-.1-3.994-.1-68.994-.004-137.987-.006-206.981.01-1.826 0-4.169-.473-5.367.449-2.271 1.748-4.835 4.087-5.543 6.658-.97 3.524 1.385 6.44 5.067 7.406 2.051.538 4.287.499 6.439.5l207.397.019M130.5 366.415c-25.496 0-50.991-.011-76.487.023-1.984.003-4.569-.4-5.82.646-2.179 1.823-4.893 4.652-4.853 7.017.04 2.358 3.008 4.842 5.065 6.898.723.723 2.552.447 3.875.447l197.966.002c1.159 0 2.354-.048 3.47-.325 3.498-.867 5.394-3.216 5.532-6.783.146-3.774-1.592-6.504-5.322-7.42-2.065-.507-4.292-.484-6.446-.486l-116.98-.019m-23-57.766c-16.664 0-33.328-.006-49.991.006-2.664.002-5.351-.122-7.988.17-4.019.445-6.318 2.927-6.515 6.937-.197 4.021 1.883 6.673 5.824 7.545 1.761.39 3.635.36 5.458.361l193.467.013c1.333 0 2.675.08 3.997-.042 4.764-.44 7.589-3.354 7.522-7.661-.067-4.34-2.876-6.994-7.8-7.292-1.495-.091-2.999-.035-4.498-.035l-139.477-.001m87.88-257.628c-.733-.388-1.455-.799-2.202-1.159-13.32-6.41-28.687-4.073-39.323 5.974-10.273 9.703-13.683 24.954-8.511 38.062 5.301 13.435 18.586 22.294 33.143 22.102 15.009-.198 28.233-10.235 32.656-24.786 4.637-15.252-1.06-30.249-15.763-40.192m-62.124 3.282c-4.882-5.686-11.206-8.087-18.558-8.12-3.829-.017-7.659-.046-11.487.005-6.782.09-9.341 2.611-9.359 9.374l-.019 50.944c.008 6.022 2.554 9.321 7.158 9.477 4.83.164 7.745-3.326 7.828-9.456l.009-11.677 15.155 17.229c3.932 4.424 8.121 5.144 11.678 2.097 3.531-3.025 3.475-7.431-.292-11.854l-11.807-13.526c15.373-8.939 18.905-21.05 9.695-34.496m241.244 154.621l16.486-.034c4.961-.13 8.115-3.281 8.028-7.667-.083-4.161-3.179-7.036-7.872-7.28-.997-.052-1.998-.02-2.997-.02-44.298-.001-88.596-.001-132.894.002-1.332 0-2.678-.079-3.993.08-4.288.517-6.644 3.169-6.749 7.309-.1 3.96 2.249 6.547 6.109 7.42 1.592.36 3.314.184 4.977.185l118.905.006m-17.17-154.262c-1.778-1.453-3.379-3.233-5.362-4.307-13.094-7.089-29.437-4.807-40.258 5.46-10.986 10.424-14.047 26.81-7.542 40.377 9.893 20.635 37.836 26.548 52.842 11.182 3.95-4.045 4.375-8.639 1.098-11.863-3.325-3.271-6.827-2.629-11.494.817-2.926 2.161-6.622 4.05-10.159 4.46-8.245.955-16.147-4.496-19.27-12.239-3.023-7.496-.976-16.526 4.987-21.994 6.425-5.892 15.039-6.979 23.124-2.659 3.428 1.832 6.674 3.152 10.173.424 3.068-2.392 3.352-5.537 1.863-9.658m-63.364 47.614l-19.255-1.939V88.93l12.104-.013c5.365-.087 8.817-3.013 8.889-7.421.073-4.457-3.321-7.469-8.672-7.565-4.093-.073-8.188-.015-12.178-.015V61.822l14.282-.031c5.071-.16 8.113-3.134 8.086-7.586-.027-4.501-2.99-7.283-8.195-7.365-6.992-.109-13.989-.108-20.982-.005-5.847.086-8.503 2.663-8.539 8.63l.005 51.956c.038 5.871 2.841 8.506 8.632 8.568 6.827.073 13.688.404 20.466-.172 2.734-.232 6.109-1.955 7.723-4.104 2.11-2.808 1.169-6.37-2.368-9.437M68.49 91.404c11.916-3.599 18.818-13.523 17.427-25.058-1.38-11.441-11.19-19.863-23.571-20.145-4.488-.102-8.983-.099-13.471.002-6.019.135-8.799 2.919-8.819 8.973l-.002 51.891c.015 5.454 2.827 8.778 7.283 8.92 4.635.148 7.634-3.306 7.691-8.973l.01-14.639c4.709-.252 8.681-.464 13.451-.971M294.5 222.872c-13.499 0-26.999-.02-40.498.009-6.211.013-9.704 2.834-9.581 7.609.117 4.562 3.615 7.372 9.43 7.378l81.997-.002c5.915-.007 9.204-2.747 9.25-7.464.046-4.759-3.183-7.496-9.099-7.515l-41.498-.015m95.941-107.67c1.467-2.586 3.72-5.031 4.216-7.792.725-4.035.19-8.296.19-12.46V61.145c2.961 0 5.423.111 7.873-.024 4.319-.238 6.826-2.773 7.128-6.918.309-4.238-2.162-7.546-6.22-7.713-10.804-.445-21.647-.433-32.453-.031-4.064.151-6.443 3.233-6.334 7.599.103 4.156 2.879 6.835 7.434 7.082 2.417.131 4.848.023 7.56.023l.023 46.139c.031 6.552 3.208 9.107 10.584 7.9m-164.893.033c10.934 2.505 21.752-4.043 22.263-14.735.754-15.791.359-31.642.243-47.466-.03-4.112-2.949-6.376-6.79-6.699-3.662-.309-6.472 1.57-7.521 5.247-.49 1.719-.538 3.604-.544 5.415l-.091 38.486c-.016 1.669-.466 4.037-1.581 4.78-.957.638-3.166-.549-4.797-1.011-.453-.129-.796-.604-1.236-.831-3.78-1.949-7.182-1.39-9.751 1.995-2.612 3.441-2.218 7.084.973 9.814 2.343 2.003 5.34 3.242 8.832 5.006z"/>
    <path fill="#faf7f7" d="M352 497.998c-30.824 0-61.147-.003-91.471.002-7.281.001-8.801 1.074-11.231 7.896H230.41c-2.275-6.806-3.752-7.894-10.785-7.895l-128.459-.003c-1.815 0-3.63 0-6.302 0 6.7-8.441 10.391-17.491 10.757-27.688.185-5.159.076-10.328.108-15.492.062-9.94 3.964-13.811 14.01-13.812l311.9-.004 54.982.006c9.591.011 13.571 4.021 13.63 13.688l-.033 14.994c-.435 16.288-12.452 28.229-28.754 28.274L352 497.998z"/>
    <path fill="#796c78" d="M359.195 425.996c-1.433-.631-2.846-1.06-3.224-1.937-.488-1.13-.159-2.616-.162-3.949-.021-10.489-.259-10.234-9.855-14.669-6.28-2.903-12.241-6.688-17.89-10.715-6.123-4.365-7.444-4.812-13.842-1.09-3.167 1.842-6.313 3.726-9.548 5.443-3.642 1.933-6.769 1.339-8.961-2.367l-8.566-14.668c-2.145-3.728-1.151-6.791 2.344-8.98 3.526-2.208 7.19-4.196 10.811-6.25 4.045-2.294 5.401-5.353 5.022-10.293-.669-8.722-.567-17.561.015-26.297.297-4.452-.722-7.438-4.434-9.61l-11.222-6.538c-3.737-2.293-4.703-5.429-2.413-9.346l8.308-14.241c2.295-3.934 5.515-4.541 9.336-2.442 3.647 2.005 7.271 4.064 10.806 6.259 3.748 2.329 6.89 1.711 10.592-.622 7.825-4.932 15.922-9.458 24.088-13.811 3.521-1.877 5.314-4.404 5.384-8.236.079-4.332.028-8.666.037-13 .009-4.53 2.335-6.725 6.812-6.729l16.5.012c4.498.038 6.718 2.475 6.792 6.874.073 4.332.095 8.668.008 12.999-.086 4.275 2.246 6.42 5.856 8.324 7.893 4.163 15.697 8.555 23.179 13.407 3.848 2.495 7.088 3.185 11.009.724 3.383-2.123 6.865-4.099 10.377-6.002 4.395-2.382 7.177-1.746 9.718 2.389 2.877 4.68 5.66 9.429 8.223 14.285 1.987 3.765 1.326 7.074-2.64 9.339l-11.232 6.524c-3.71 2.076-5.046 5.208-4.18 9.241 1.953 9.094 1.871 18.149-.042 27.241-.804 3.823.538 6.851 4.034 8.845l11.231 6.525c3.961 2.197 4.905 5.459 2.933 9.256-2.684 5.167-5.68 10.182-8.744 15.137-2.097 3.391-5.208 3.953-8.656 2.073-3.947-2.151-7.867-4.361-11.723-6.672-3.672-2.201-6.659-1.257-10.118.947-7.526 4.795-15.252 9.325-23.167 13.442-3.823 1.989-6.221 4.199-6.063 8.682.116 3.292.023 6.591.023 10.498-9.055 0-17.665 0-26.755-.002m25.145-46.009c1.81-.836 3.681-1.563 5.422-2.525 16.944-9.364 24.419-30.315 17.239-48.214-7.237-18.044-26.636-28.209-45.056-23.609-21.849 5.456-34.653 27.112-28.662 48.477 6.002 21.4 28.515 33.082 51.056 25.871z"/>
    <path fill="#dddaed" d="M23.876 401.459c6.163-.452 12.216-.447 18.737-.022.403 7.251 2.737 9.727 9.616 9.735l93.178-.001c6.983-.009 9.509-2.901 8.966-9.874 2.487-.097 4.975-.277 7.462-.279l118.179-.101c5.386 8.873 12.071 15.404 23.016 13.947 4.582-.61 9.088-2.968 13.237-5.245 2.794-1.533 4.502-1.357 7.009.404 4.063 2.854 8.291 5.718 12.865 7.527 4.125 1.632 5.421 3.832 4.231 8.451h-5.649c-74.965 0-149.93-.003-224.895.002-18.549.001-29.027 10.517-29.121 29.077-.03 5.987.211 12.039-.551 17.948-1.957 15.153-15.053 25.824-29.932 24.915-14.648-.894-26.24-12.905-26.398-28.06l.051-68.424z"/>
    <path fill="#dbd8eb" d="M414.904 426.003h-13.62c-.869-4.113-.549-6.834 4.106-8.435 4.29-1.476 8.127-4.267 12.878-6.87 0 4.68.145 8.911-.13 13.114-.051.787-1.786 1.463-3.235 2.191z"/>
    <path fill="#040403" d="M186.984 289.755c-37.813 0-75.129.006-112.445-.003-19.956-.005-31.592-11.648-31.603-31.613l.008-62.971c.038-18.079 11.953-30.16 29.923-30.187l122.443-.003c17.889.024 29.925 11.684 30.115 29.527l.009 65.468c-.176 18.057-12.303 29.701-30.457 29.779l-7.994.002M144.5 179.967c-23.644 0-47.288-.025-70.933.012-10.418.017-15.603 5.234-15.619 15.67v63.44c.016 10.362 5.267 15.635 15.707 15.645l120.885.003c10.519-.008 15.839-5.121 15.887-15.49l-.004-63.939c-.047-10.155-5.337-15.302-15.471-15.329l-50.453-.013z"/>
    <path fill="#010101" d="M293 131.037l81.488.005c1.497 0 3.06-.184 4.48.17 3.798.947 6.13 3.367 6.045 7.453-.084 4.066-2.442 6.465-6.307 7.218-1.771.345-3.654.144-5.486.144l-304.456.002c-1.666 0-3.357.141-4.993-.091-4.165-.59-6.684-3.009-6.765-7.293-.081-4.311 2.436-6.765 6.537-7.507 1.617-.292 3.324-.1 4.99-.1L293 131.037z"/>
    <path d="M261.634 352.585c-69.285 0-138.112.004-206.939-.019-2.153-.001-4.389.038-6.439-.5-3.681-.966-6.037-3.882-5.067-7.406.708-2.571 3.271-4.91 5.543-6.658 1.198-.922 3.541-.449 5.367-.449l206.981-.01c1.332 0 2.674-.038 3.994.1 4.549.475 7.228 3.217 7.153 7.396-.077 4.331-2.463 6.731-6.644 7.397-1.142.182-2.326.106-3.949.149zM131 366.415l116.48.019c2.154.001 4.381-.022 6.446.486 3.73.916 5.468 3.646 5.322 7.42-.138 3.567-2.034 5.916-5.532 6.783-1.116.277-2.311.324-3.47.325-65.989.015-131.978.016-197.966-.002-1.324 0-3.152.276-3.875-.447-2.057-2.056-5.025-4.54-5.065-6.898-.04-2.365 2.675-5.194 4.853-7.017 1.251-1.046 3.835-.643 5.82-.646l76.987-.023z" fill="#080808"/>
    <path fill="#070707" d="M108 308.649l138.977.001 4.498.035c4.924.299 7.733 2.952 7.8 7.292.067 4.307-2.758 7.221-7.522 7.661-1.322.122-2.664.042-3.997.042-64.489.001-128.978.004-193.467-.013-1.823 0-3.697.029-5.458-.361-3.941-.872-6.021-3.524-5.824-7.545.197-4.01 2.496-6.493 6.515-6.937 2.637-.292 5.324-.168 7.988-.17l50.491-.006z"/>
    <path d="M195.697 51.205c14.386 9.76 20.083 24.757 15.446 40.009-4.424 14.551-17.647 24.588-32.656 24.786-14.557.192-27.842-8.667-33.143-22.102-5.172-13.108-1.761-28.359 8.511-38.062 10.637-10.047 26.003-12.384 39.323-5.974.747.359 1.469.771 2.519 1.342m-9.546 11.884c-10.735-3.905-20.793-.57-25.78 8.548-4.732 8.654-2.328 19.573 5.598 25.421 9.254 6.828 22.092 4.557 28.453-5.033 6.499-9.797 3.305-21.838-8.272-28.936zm-52.654-8.513c8.969 13.174 5.437 25.284-9.936 34.224l11.807 13.526c3.768 4.422 3.824 8.828.292 11.854-3.557 3.047-7.746 2.327-11.678-2.097l-15.155-17.229-.009 11.677c-.083 6.13-2.998 9.619-7.828 9.456-4.604-.156-7.15-3.455-7.158-9.477l.019-50.944c.018-6.764 2.577-9.284 9.359-9.374l11.487-.005c7.352.033 13.676 2.434 18.799 8.392m-24.634 13.903v6.363c5.469-.154 10.784 1.183 13.555-4.074.856-1.624.518-4.795-.57-6.352-3.15-4.507-8.064-3.206-12.988-3.044l.002 7.108z" fill="#040404"/>
    <path fill="#030303" d="M373.999 208.924c-39.802 0-79.104.002-118.406-.006-1.663 0-3.385.175-4.977-.185-3.86-.873-6.209-3.46-6.109-7.42.105-4.14 2.461-6.792 6.749-7.309 1.315-.159 2.661-.079 3.993-.08l132.894-.002c.999 0 2-.032 2.997.02 4.693.244 7.789 3.119 7.872 7.28.087 4.386-3.067 7.537-8.028 7.667-5.492.144-10.99.034-16.986.034z"/>
    <path fill="#040404" d="M357.557 54.989c1.262 3.794.978 6.939-2.091 9.331-3.499 2.728-6.745 1.408-10.173-.424-8.084-4.32-16.698-3.233-23.124 2.659-5.963 5.468-8.01 14.498-4.987 21.994 3.123 7.743 11.025 13.194 19.27 12.239 3.536-.41 7.232-2.299 10.159-4.46 4.667-3.446 8.169-4.088 11.494-.817 3.277 3.224 2.852 7.819-1.098 11.863-15.006 15.366-42.949 9.453-52.842-11.182-6.504-13.567-3.443-29.953 7.542-40.377 10.821-10.268 27.164-12.55 40.258-5.46 1.983 1.074 3.584 2.854 5.59 4.634z"/>
    <path fill="#060505" d="M294.281 102.542c3.222 2.801 4.162 6.363 2.052 9.171-1.614 2.148-4.989 3.872-7.723 4.104-6.779.576-13.64.245-20.466.172-5.791-.062-8.595-2.697-8.632-8.568l-.005-51.956c.036-5.966 2.691-8.544 8.539-8.63 6.993-.103 13.989-.104 20.982.005 5.205.081 8.167 2.864 8.195 7.365.027 4.451-3.015 7.426-8.086 7.586-4.638.146-9.285.031-14.282.031v12.095l12.178.015c5.351.096 8.745 3.108 8.672 7.565-.072 4.408-3.525 7.334-8.889 7.421-3.966.064-7.934.013-12.104.013v11.407l19.57 2.205z"/>
    <path fill="#030303" d="M68.09 91.551c-4.371.359-8.342.572-13.052.824l-.01 14.639c-.057 5.667-3.056 9.121-7.691 8.973-4.457-.143-7.269-3.467-7.283-8.92l.002-51.891c.02-6.055 2.8-8.839 8.819-8.973 4.488-.101 8.983-.104 13.471-.002 12.381.282 22.19 8.704 23.571 20.145 1.391 11.534-5.51 21.458-17.826 25.205m-1.793-15.256c4.088-2.163 5.793-5.449 4.128-9.884-1.799-4.791-6.9-6.255-15.062-4.624v15.505c3.626-.205 6.919-.392 10.934-.997z"/>
    <path fill="#050505" d="M154.191 401.018c.724 7.252-1.801 10.144-8.784 10.153l-93.178.001c-6.879-.008-9.213-2.484-9.142-9.726 2.168-4.037 5.335-5.34 9.556-5.326l92.212.024c3.93-.007 7.24.791 9.337 4.873z"/>
    <path fill="#040404" d="M295 222.872l40.998.015c5.915.019 9.145 2.756 9.099 7.515-.046 4.717-3.335 7.458-9.25 7.464l-81.997.002c-5.816-.006-9.313-2.816-9.43-7.378-.123-4.775 3.37-7.596 9.581-7.609l40.998-.009z"/>
    <path d="M390.093 115.386c-7.027 1.022-10.204-1.533-10.235-8.085l-.023-46.139c-2.713 0-5.143.108-7.56-.023-4.555-.247-7.33-2.925-7.434-7.082-.108-4.365 2.27-7.448 6.334-7.599 10.806-.401 21.65-.413 32.453.031 4.058.167 6.529 3.475 6.22 7.713-.303 4.144-2.809 6.679-7.128 6.918-2.449.135-4.912.024-7.873.024v33.804c0 4.165.535 8.426-.19 12.46-.496 2.761-2.749 5.206-4.564 7.977zm-164.939-.244c-3.099-1.672-6.096-2.91-8.439-4.914-3.192-2.729-3.585-6.373-.973-9.814 2.569-3.385 5.971-3.945 9.751-1.995.44.227.782.702 1.236.831 1.632.463 3.84 1.649 4.797 1.011 1.115-.743 1.565-3.11 1.581-4.78l.091-38.486c.006-1.811.054-3.696.544-5.415 1.049-3.678 3.859-5.556 7.521-5.247 3.841.324 6.76 2.588 6.79 6.699.116 15.824.511 31.675-.243 47.466-.51 10.693-11.328 17.241-22.656 14.643z" fill="#050505"/>
    <path fill="#030303" d="M383.958 380.098c-22.159 7.099-44.672-4.583-50.674-25.983-5.992-21.365 6.812-43.021 28.662-48.477 18.419-4.6 37.819 5.566 45.056 23.609 7.179 17.9-.295 38.851-17.239 48.214-1.741.962-3.611 1.689-5.804 2.636m8.1-25.778c.385-.915.828-1.81 1.146-2.747 3.333-9.804 1.137-18.375-6.18-25.508-6.791-6.621-17.326-8.352-25.911-4.335-9.298 4.35-14.13 11.797-14.151 22.109-.021 10.489 6.901 19.512 17.075 22.585 10.624 3.208 20.935-1.035 28.019-12.104z"/>
    <path fill="#fcce5a" d="M145 179.967l49.953.013c10.134.027 15.424 5.174 15.471 15.329l.004 63.939c-.047 10.369-5.368 15.482-15.887 15.49-40.295.031-80.59.035-120.885-.003-10.441-.01-15.691-5.283-15.707-15.645v-63.44c.015-10.436 5.201-15.654 15.619-15.67l71.433-.012m-6.985 52.533l.012 23.957c.042 6.658 2.697 9.321 9.444 9.346h42.923c6.676-.025 9.448-2.753 9.468-9.383l-.001-53.903c-.021-6.605-2.802-9.341-9.505-9.371-14.307-.064-28.616-.065-42.923.001-6.71.031-9.373 2.744-9.405 9.406l-.013 29.948m-53.462 33.32l36.947-.029c5.939-.044 8.654-2.686 8.724-8.477l.003-27.959c-.065-5.852-2.701-8.426-8.644-8.454l-43.937-.007c-6.48.026-8.927 2.537-9.002 9.141l-.021 20.97c0 14.214.608 14.816 15.93 14.816z"/>
    <path fill="#f6f3f3" d="M186.495 63.256c11.234 6.93 14.427 18.971 7.929 28.768-6.361 9.59-19.2 11.861-28.453 5.033-7.926-5.848-10.33-16.767-5.598-25.421 4.986-9.118 15.045-12.453 26.123-8.381z"/>
    <path fill="#f1eeee" d="M108.861 68l-.001-6.63c4.924-.162 9.838-1.463 12.988 3.044 1.088 1.557 1.426 4.728.57 6.352-2.771 5.257-8.087 3.921-13.555 4.074L108.861 68z"/>
    <path fill="#f2efef" d="M65.937 76.505c-3.654.396-6.947.582-10.573.788l.001-15.507c8.16-1.629 13.261-.165 15.06 4.626 1.665 4.435-.04 7.721-4.488 10.094z"/>
    <path fill="#f8f5f5" d="M391.909 354.667c-6.935 10.721-17.246 14.965-27.87 11.757-10.174-3.072-17.096-12.096-17.075-22.585.021-10.312 4.853-17.759 14.151-22.109 8.584-4.016 19.119-2.286 25.911 4.335 7.316 7.133 9.513 15.704 6.18 25.508-.319.937-.761 1.832-1.296 3.094z"/>
    <path fill="#030301" d="M138.015 232l.013-29.448c.033-6.662 2.695-9.375 9.405-9.406l42.923-.001c6.703.03 9.485 2.766 9.505 9.371l.001 53.903c-.02 6.631-2.792 9.359-9.468 9.383h-42.923c-6.747-.025-9.402-2.687-9.444-9.346L138.015 232m22.577 18.823h24.018v-42.346h-31.253v42.346h7.235z"/>
    <path fill="#040302" d="M84.064 265.82c-14.834 0-15.442-.602-15.442-14.816l.021-20.97c.075-6.604 2.523-9.115 9.002-9.141l43.937.007c5.943.029 8.58 2.602 8.644 8.454l-.003 27.959c-.07 5.791-2.784 8.432-8.724 8.477l-37.436.029m8.489-14.998h22.327v-14.597H83.938v14.597h8.616z"/>
    <path fill="#b8e86a" d="M160.106 250.823h-6.75v-42.346h31.253v42.346c-8.138 0-16.078 0-24.504 0z"/>
    <path fill="#f9626d" d="M92.064 250.823h-8.126v-14.597h30.943v14.597c-7.493 0-14.91 0-22.817 0z"/>
</svg>